<svg width="13" height="17" viewBox="0 0 13 17" fill="none" xmlns="http://www.w3.org/2000/svg">
<path d="M12.2275 16.5929H0.702323C0.425535 16.5929 0.201172 16.3686 0.201172 16.0918V1.43475C0.201172 1.15796 0.425529 0.933594 0.702323 0.933594H9.26792V3.78805C9.26792 4.12285 9.53947 4.3944 9.87427 4.3944H12.7287V16.0918C12.7287 16.3686 12.5044 16.593 12.2276 16.593L12.2275 16.5929ZM1.9134 11.0809H3.04206C3.9515 11.0809 4.57991 10.4484 4.57991 9.63403V9.62573C4.57991 8.81131 3.9515 8.18706 3.04206 8.18706H1.9134V11.0809ZM3.04206 8.7617C3.56287 8.7617 3.91425 9.12139 3.91425 9.634V9.6423C3.91425 10.1549 3.56287 10.5063 3.04206 10.5063H2.55008V8.76167L3.04206 8.7617ZM6.55197 11.1305C7.44494 11.1305 8.09398 10.4566 8.09398 9.634V9.6257C8.09398 8.80309 7.45313 8.13743 6.56016 8.13743C5.66731 8.13743 5.01826 8.81128 5.01826 9.634V9.64231C5.01826 10.4649 5.659 11.1305 6.55197 11.1305ZM6.56016 10.5435C6.04754 10.5435 5.6838 10.13 5.6838 9.63403V9.62573C5.6838 9.12961 6.03935 8.72448 6.55197 8.72448C7.06458 8.72448 7.42832 9.13791 7.42832 9.63403V9.64233C7.42832 10.1383 7.07289 10.5435 6.56016 10.5435V10.5435ZM10.0164 11.1305C10.5744 11.1305 10.9052 10.9321 11.2028 10.6138L10.7977 10.2045C10.5703 10.4112 10.3678 10.5434 10.037 10.5434C9.54092 10.5434 9.19782 10.13 9.19782 9.634V9.6257C9.19782 9.12958 9.5492 8.72445 10.037 8.72445C10.3264 8.72445 10.5538 8.84854 10.777 9.05106L11.1821 8.584C10.9134 8.31933 10.5868 8.13746 10.0412 8.13746C9.15238 8.13746 8.53227 8.81131 8.53227 9.63403V9.64233C8.53227 10.4733 9.16471 11.1305 10.0164 11.1305V11.1305ZM9.59704 3.56454V0.933845L12.7289 4.06569H10.0982C9.82141 4.06569 9.59704 3.84133 9.59704 3.56454Z" fill="black"/>
</svg>
