<svg width="20" height="21" viewBox="0 0 20 21" fill="none" xmlns="http://www.w3.org/2000/svg">
<path d="M19.2 18.6586H0.8C0.3575 18.6586 0 19.0161 0 19.4586V20.3586C0 20.4686 0.09 20.5586 0.2 20.5586H19.8C19.91 20.5586 20 20.4686 20 20.3586V19.4586C20 19.0161 19.6425 18.6586 19.2 18.6586ZM3.6425 16.5586C3.6925 16.5586 3.7425 16.5536 3.7925 16.5461L7.9975 15.8086C8.0475 15.7986 8.095 15.7761 8.13 15.7386L18.7275 5.14109C18.7507 5.11796 18.7691 5.09049 18.7816 5.06025C18.7942 5.03001 18.8006 4.99759 18.8006 4.96484C18.8006 4.9321 18.7942 4.89968 18.7816 4.86944C18.7691 4.83919 18.7507 4.81172 18.7275 4.78859L14.5725 0.631094C14.525 0.583594 14.4625 0.558594 14.395 0.558594C14.3275 0.558594 14.265 0.583594 14.2175 0.631094L3.62 11.2286C3.5825 11.2661 3.56 11.3111 3.55 11.3611L2.8125 15.5661C2.78818 15.7 2.79687 15.8379 2.83782 15.9677C2.87877 16.0975 2.95074 16.2154 3.0475 16.3111C3.2125 16.4711 3.42 16.5586 3.6425 16.5586Z" fill="white"/>
</svg>
