<svg width="19" height="23" viewBox="0 0 19 23" fill="none" xmlns="http://www.w3.org/2000/svg">
<path d="M8.71875 13.1602H6.08203C6.03023 13.1602 5.98055 13.1807 5.94392 13.2174C5.9073 13.254 5.88672 13.3037 5.88672 13.3555V14.5273C5.88672 14.5791 5.9073 14.6288 5.94392 14.6655C5.98055 14.7021 6.03023 14.7227 6.08203 14.7227H8.71875V17.3594C8.71875 17.4112 8.73933 17.4609 8.77596 17.4975C8.81258 17.5341 8.86226 17.5547 8.91406 17.5547H10.0859C10.1377 17.5547 10.1874 17.5341 10.224 17.4975C10.2607 17.4609 10.2812 17.4112 10.2812 17.3594V14.7227H12.918C12.9698 14.7227 13.0194 14.7021 13.0561 14.6655C13.0927 14.6288 13.1133 14.5791 13.1133 14.5273V13.3555C13.1133 13.3037 13.0927 13.254 13.0561 13.2174C13.0194 13.1807 12.9698 13.1602 12.918 13.1602H10.2812V10.5234C10.2812 10.4716 10.2607 10.422 10.224 10.3853C10.1874 10.3487 10.1377 10.3281 10.0859 10.3281H8.91406C8.86226 10.3281 8.81258 10.3487 8.77596 10.3853C8.73933 10.422 8.71875 10.4716 8.71875 10.5234V13.1602ZM17.8643 6.04834C18.0107 6.19482 18.0938 6.39258 18.0938 6.6001V21.6562C18.0938 22.0884 17.7446 22.4375 17.3125 22.4375H1.6875C1.25537 22.4375 0.90625 22.0884 0.90625 21.6562V1.34375C0.90625 0.911621 1.25537 0.5625 1.6875 0.5625H12.0562C12.2637 0.5625 12.4639 0.645508 12.6104 0.791992L17.8643 6.04834ZM16.292 6.95898L11.6973 2.36426V6.95898H16.292Z" fill="#2F2F2F"/>
</svg>
