<svg width="12" height="12" viewBox="0 0 12 12" fill="none" xmlns="http://www.w3.org/2000/svg">
<path d="M1 12C0.733333 12 0.5 11.9 0.3 11.7C0.1 11.5 0 11.2667 0 11V1C0 0.733333 0.1 0.5 0.3 0.3C0.5 0.1 0.733333 0 1 0H5.15C5.29167 0 5.41042 0.0481945 5.50625 0.144583C5.60208 0.240983 5.65 0.360428 5.65 0.502917C5.65 0.645417 5.60208 0.763889 5.50625 0.858333C5.41042 0.952778 5.29167 1 5.15 1H1V11H11V6.85C11 6.70833 11.0482 6.58958 11.1446 6.49375C11.241 6.39792 11.3604 6.35 11.5029 6.35C11.6454 6.35 11.7639 6.39792 11.8583 6.49375C11.9528 6.58958 12 6.70833 12 6.85V11C12 11.2667 11.9 11.5 11.7 11.7C11.5 11.9 11.2667 12 11 12H1ZM4.01883 7.97682C3.9285 7.88116 3.88056 7.76667 3.875 7.63333C3.86944 7.5 3.91667 7.38333 4.01667 7.28333L10.3 1H7.15C7.00833 1 6.88958 0.951806 6.79375 0.855417C6.69792 0.759017 6.65 0.639572 6.65 0.497083C6.65 0.354583 6.69792 0.236111 6.79375 0.141667C6.88958 0.0472222 7.00833 0 7.15 0H11.5C11.6417 0 11.7604 0.0479167 11.8563 0.14375C11.9521 0.239583 12 0.358333 12 0.5V4.85C12 4.99167 11.9518 5.11042 11.8554 5.20625C11.759 5.30208 11.6396 5.35 11.4971 5.35C11.3546 5.35 11.2361 5.30208 11.1417 5.20625C11.0472 5.11042 11 4.99167 11 4.85V1.71667L4.71667 8C4.62287 8.08889 4.50775 8.13333 4.37132 8.13333C4.23488 8.13333 4.11739 8.08116 4.01883 7.97682Z" fill="#3B82F6"/>
</svg>
