<svg width="15" height="13" viewBox="0 0 15 13" fill="none" xmlns="http://www.w3.org/2000/svg">
<path d="M4.29263 2.09579C4.30395 2.11894 4.32919 2.16155 4.36836 2.2236L5.08337 3.34193L5.011 3.33613C4.46076 3.29099 4.06634 3.24847 3.82775 3.20857C3.81504 3.20529 3.80745 3.21346 3.80499 3.23314C3.81111 3.26208 3.81719 3.27973 3.82321 3.28608L3.82756 3.28871C3.83951 3.2986 3.85952 3.30619 3.88758 3.31145C4.12527 3.3525 4.32325 3.38745 4.48154 3.41629C4.44152 3.46064 4.41302 3.49121 4.39594 3.50789C4.36691 3.53755 4.33627 3.56706 4.30401 3.59644C4.28638 3.61282 4.21237 3.67216 4.08195 3.77445C4.06157 3.79045 4.02418 3.81846 3.96977 3.85849C3.96663 3.86224 3.96688 3.86603 3.97054 3.86989C3.97604 3.87569 3.98926 3.88161 4.01021 3.88765C4.02055 3.887 4.04337 3.87635 4.07864 3.85572C4.09629 3.8454 4.11705 3.8326 4.14093 3.81729L4.22191 3.76389L4.24041 3.75084C4.29035 3.71547 4.34514 3.6752 4.40479 3.63006C4.44965 3.59491 4.50687 3.55059 4.57642 3.49708C4.60211 3.47739 4.62443 3.46045 4.64333 3.44627C4.76422 3.46907 4.84989 3.4864 4.90043 3.49837C5.0435 3.532 5.15809 3.56436 5.24419 3.59545C5.39658 3.84452 5.49819 4.01627 5.5489 4.11059C5.59464 4.1957 5.631 4.26456 5.65795 4.31716C5.7074 4.85443 5.72361 5.24531 5.7067 5.4899C5.69408 5.807 5.62727 6.15393 5.50624 6.5307C5.3854 6.87869 5.26346 7.15604 5.14043 7.36276C4.87633 7.59897 4.61289 7.84815 4.35019 8.11038C4.02292 8.43364 3.28892 9.18712 2.14818 10.3708L1.74823 10.7605C1.31668 11.1368 0.941362 11.4255 0.622281 11.6267L2.5 12.7495C2.57868 12.3944 2.65467 11.6103 3.0625 11.062C3.26643 10.7879 3.40359 10.6932 3.68979 10.3708C3.97601 10.0484 4.27484 9.74525 4.64333 9.37451L5.24419 8.81201C5.55112 8.54526 5.9734 8.06482 6.4375 7.68701L7.76837 6.76179L8.41432 6.23771C9.13711 5.79724 9.27519 5.58459 9.84147 5.37901C10.3048 5.38889 10.6701 5.39278 10.9375 5.39079C10.9944 5.39611 11.0522 5.40254 11.1111 5.41022C11.3129 5.43653 11.5265 5.47661 11.7519 5.53045C11.8221 5.55213 11.8924 5.57706 11.9627 5.60524C11.9763 5.62562 11.9891 5.64727 12.0009 5.66999C12.0164 5.69878 12.0318 5.73056 12.0471 5.76533C12.0549 5.77898 12.0776 5.83788 12.1152 5.94203C12.1475 6.04188 12.1743 6.14044 12.1956 6.23771C12.2063 6.28635 12.2156 6.33466 12.2236 6.38266C12.2291 6.40611 12.2382 6.47832 12.251 6.59927C12.252 6.60578 12.2548 6.6115 12.2595 6.61645C12.2654 6.62265 12.2742 6.62763 12.2858 6.63139C12.3201 6.63404 12.3327 6.52317 12.3237 6.29876C12.3145 6.1615 12.3078 6.08177 12.3037 6.05958C12.2978 6.00972 12.291 5.96204 12.2833 5.91656C12.2723 5.85175 12.2593 5.79139 12.2445 5.73548C12.2687 5.74815 12.2928 5.76112 12.3171 5.77457C12.4424 5.84461 12.6119 5.95933 12.8255 6.11871C12.8814 6.12623 12.9102 6.10299 12.9117 6.04902L12.8464 5.99305C12.6353 5.8117 12.4202 5.65738 12.201 5.53008C12.0255 5.42785 11.8714 5.34457 11.7386 5.28024L12.9858 4.92211L13.8914 4.72145C13.8999 4.72293 13.9084 4.72436 13.9172 4.72595C13.9816 4.73889 14.0405 4.75425 14.0938 4.77205C14.1768 4.79838 14.2675 4.83032 14.3657 4.86789C14.4595 4.90613 14.6037 4.9666 14.7983 5.0493C14.8215 5.05874 14.8348 5.06356 14.8385 5.06379C14.8468 5.06949 14.8547 5.06322 14.8621 5.04499C14.8658 5.03267 14.8617 5.0202 14.8498 5.0076L14.8481 5.00592C14.7356 4.91165 14.5953 4.82857 14.4272 4.7567C14.3117 4.70883 14.2405 4.68095 14.2135 4.67302C14.2001 4.66832 14.1866 4.66366 14.173 4.65905L14.7838 4.52372C14.8584 4.46758 14.8847 4.42792 14.8627 4.40472L14.8618 4.40388C14.8596 4.40168 14.8569 4.39965 14.8538 4.39776L14.8513 4.3954L13.4223 4.47778C13.4675 4.37143 13.5298 4.22114 13.6091 4.02691C13.6204 4.01399 13.6316 4.00112 13.6431 3.9885C13.7213 3.90231 13.8035 3.82324 13.8899 3.75126C13.9235 3.72206 13.9772 3.68106 14.051 3.62828C14.0985 3.59377 14.1658 3.55055 14.253 3.4986L14.2822 3.48189L14.7416 3.25819C14.7863 3.23425 14.8109 3.22002 14.8154 3.21548C14.8255 3.20731 14.8294 3.20201 14.8294 3.20201C14.821 3.16112 14.8124 3.13623 14.8043 3.12762L14.8017 3.12542L14.7994 3.1232C14.7907 3.11547 14.7791 3.11449 14.7645 3.1203C14.7195 3.13372 14.676 3.14892 14.6338 3.16593C14.6251 3.16897 14.5828 3.18597 14.5071 3.21693C14.4022 3.26498 14.3262 3.30149 14.2791 3.32649C14.185 3.37425 14.091 3.42648 13.9971 3.48316L13.9255 3.52805C13.8693 3.56518 13.8219 3.59649 13.7832 3.62197C13.8448 3.48636 13.9215 3.30924 14.0132 3.09061C14.1221 2.86958 14.1852 2.73891 14.2024 2.69862C14.218 2.6349 14.2158 2.59079 14.1958 2.5663L14.1912 2.56212C14.1799 2.55123 14.1589 2.55131 14.128 2.56235C14.1163 2.56964 14.1019 2.58795 14.0847 2.61731L13.3525 4.03804C13.2764 4.17966 13.213 4.28566 13.1622 4.35607C13.1128 4.42586 13.0398 4.50929 12.9431 4.60635C12.7296 4.7122 12.5357 4.78918 12.3618 4.8375C12.2346 4.87844 12.0656 4.90703 11.8548 4.92325C11.6983 4.93261 11.2335 4.90181 10.4603 4.83085C10.4199 4.83023 10.3813 4.83005 10.3445 4.83032C10.7046 4.27422 11.1078 3.6936 11.5539 3.08845L11.9479 2.57642C12.1089 2.49378 12.2745 2.41893 12.4449 2.35202C12.5962 2.29557 12.7407 2.24424 12.8786 2.19801C12.8969 2.20526 12.9175 2.21345 12.9403 2.22276C13.0073 2.25047 13.1002 2.29991 13.2191 2.37108C13.3465 2.44982 13.4732 2.53607 13.5991 2.62984C13.6896 2.70146 13.7668 2.76863 13.8308 2.83133C13.8352 2.83569 13.8416 2.83975 13.8501 2.84352C13.8548 2.84516 13.8592 2.84554 13.8632 2.84463C13.8846 2.82572 13.8961 2.81296 13.8976 2.80637C13.9046 2.7933 13.904 2.77999 13.8956 2.76643C13.8702 2.72116 13.8103 2.64871 13.7158 2.5491C13.7132 2.54634 13.7105 2.54356 13.7079 2.54076L13.6991 2.53153C13.4911 2.31987 13.3412 2.16979 13.2494 2.08131C13.2584 2.07867 13.2674 2.07606 13.2764 2.07348C13.5034 2.0156 13.841 1.94206 14.2892 1.85284C14.3094 1.84967 14.322 1.83273 14.3271 1.802C14.3314 1.78001 14.3266 1.7617 14.3127 1.74707L14.3083 1.7428C14.2983 1.7331 14.2775 1.723 14.246 1.7125L14.1592 1.71987C13.9606 1.7442 13.6868 1.79282 13.3378 1.86572C13.2551 1.88005 13.0457 1.92988 12.7096 2.01519C12.5585 2.05578 12.4162 2.0979 12.2825 2.14155L12.442 1.93428C12.512 1.84611 12.6581 1.6722 12.8804 1.41258C12.9846 1.38029 13.0979 1.35529 13.2202 1.33774C13.5461 1.29019 13.8016 1.26648 13.9869 1.26661C13.9926 1.26495 13.9969 1.26185 13.9998 1.25731C14.0021 1.25122 14.0049 1.23744 14.0081 1.21598C14.0104 1.1918 14.0065 1.17436 13.9963 1.16365L13.9925 1.16013C13.9843 1.15368 13.9729 1.1506 13.9584 1.15087C13.7134 1.15492 13.5113 1.16092 13.3519 1.16887C13.2384 1.17603 13.1451 1.18287 13.0721 1.1894C13.2197 1.01792 13.3915 0.819313 13.5874 0.593575L13.5369 0.605966L13.2874 0.660197C13.1741 0.814727 13.0128 1.01074 12.8032 1.24823L12.6043 1.45871C12.5919 1.31949 12.5835 1.18031 12.5791 1.04116C12.575 0.821314 12.5745 0.689414 12.5775 0.645479C12.5796 0.55757 12.5832 0.469682 12.5885 0.381796C12.586 0.362978 12.581 0.349619 12.5735 0.341727L12.5713 0.339626L12.5695 0.33783L12.5674 0.334984C12.5606 0.327779 12.5427 0.321237 12.5138 0.315376C12.4919 0.311696 12.4774 0.314762 12.4702 0.324559L12.3957 1.20054C12.3931 1.23675 12.3902 1.39956 12.3868 1.68897L11.4101 2.72226C11.3522 2.7754 11.3 2.82211 11.2535 2.8624C11.2076 2.65475 11.1666 2.46907 11.1306 2.30538C11.1687 2.08644 11.2041 1.91973 11.2367 1.80539C11.2873 1.61066 11.4059 1.29384 11.5924 0.854897C11.6077 0.809724 11.6125 0.784153 11.6069 0.77819L11.6034 0.776832L11.599 0.77321C11.5813 0.764054 11.5574 0.778895 11.5274 0.817743C11.5124 0.838027 11.4633 0.931421 11.38 1.09793C11.3495 1.15498 11.2364 1.42019 11.0406 1.89355C10.9896 1.65859 10.9573 1.50604 10.9437 1.43588C10.8841 1.14784 10.8518 0.973816 10.8467 0.913797C10.8419 0.896489 10.8372 0.885352 10.8325 0.880402L10.8311 0.879155L10.8249 0.874333C10.8098 0.860935 10.7824 0.887496 10.7427 0.954C10.7243 0.997188 10.7179 1.03571 10.7238 1.06956L10.7798 1.41632C10.7061 1.37332 10.642 1.33407 10.5878 1.29872C10.5421 1.26913 10.4417 1.20005 10.2867 1.09148C10.2691 1.0849 10.2591 1.08228 10.2567 1.0836C10.2507 1.08349 10.2451 1.08448 10.24 1.08657C10.2303 1.08981 10.2215 1.09933 10.2138 1.11511C10.2159 1.12141 10.2318 1.14023 10.2615 1.17156C10.2745 1.18527 10.2902 1.20137 10.3084 1.21986C10.346 1.2566 10.3993 1.30545 10.4683 1.36644C10.5447 1.43348 10.6613 1.52902 10.8181 1.65302L10.98 2.65391C11.0031 2.8258 11.0154 2.97772 11.0169 3.10969C11.017 3.11867 11.0169 3.12769 11.0168 3.13676C10.9035 3.3527 10.8078 3.52082 10.7299 3.6413L10.0959 4.58002C10.0756 4.61169 10.0415 4.64918 9.99374 4.69253C9.57292 4.87926 9.15421 5.05164 8.73758 5.20967C8.85412 4.79564 8.94943 4.45193 9.02355 4.17856C9.04943 4.15157 9.07724 4.12289 9.10711 4.09267C9.13626 4.06322 9.17663 4.02338 9.22826 3.97317C9.27989 3.92295 9.34276 3.86234 9.41688 3.79134L9.44211 3.76633C9.50237 3.70548 9.5617 3.64332 9.62011 3.57985C9.64988 3.54719 9.66701 3.52682 9.6715 3.51875L9.67249 3.51499L9.65745 3.48893L9.65378 3.48564C9.64365 3.47808 9.63094 3.48025 9.61562 3.49215C9.48457 3.6036 9.32614 3.73461 9.14032 3.8852C9.12238 3.9002 9.10593 3.91396 9.09098 3.92647C9.14462 3.6925 9.16582 3.56959 9.15457 3.55774L9.15053 3.55735L9.14672 3.55426C9.09394 3.54732 9.05164 3.57516 9.01983 3.63779C8.89091 4.00631 8.7932 4.27838 8.72668 4.45401C8.69665 4.38437 8.66839 4.3063 8.64187 4.21979C8.61656 4.13725 8.59284 4.04701 8.57071 3.94909C8.54858 3.85118 8.52804 3.74559 8.5091 3.63232L8.48186 3.45665C8.48062 3.45151 8.47798 3.44655 8.47394 3.44179L8.46988 3.43835C8.45823 3.43054 8.43981 3.43345 8.4146 3.44709L8.41432 3.48972C8.41635 3.58377 8.43401 3.73049 8.46729 3.92989C8.47125 3.95712 8.47595 3.98635 8.48139 4.0176L8.45661 4.00468C8.36206 3.95492 8.28726 3.91057 8.2322 3.87161C8.19017 3.8422 8.14973 3.8126 8.11087 3.78284C8.04395 3.73063 7.99785 3.69316 7.97258 3.67041C7.96236 3.66645 7.95332 3.66953 7.94547 3.67965C7.94181 3.68578 7.94218 3.69812 7.9466 3.71667C7.94928 3.72058 7.95416 3.72625 7.96121 3.73369C7.98068 3.75421 8.0168 3.7882 8.06955 3.83564C8.13144 3.88954 8.18761 3.93591 8.23805 3.97473C8.31243 4.03094 8.37191 4.07327 8.41649 4.1017C8.44795 4.12225 8.47847 4.14111 8.50804 4.15828C8.52427 4.23808 8.54405 4.3274 8.56724 4.42609C8.59057 4.52037 8.61417 4.6027 8.63805 4.67311C8.54543 4.88134 8.45719 5.04804 8.37342 5.17335C8.31397 5.26954 8.23033 5.38181 8.12248 5.51014L5.98425 6.76179C6.00701 6.59288 6.02692 6.38958 6.04395 6.15189C6.00831 4.64907 5.99679 3.82219 6.00941 3.67124C6.03011 3.51392 6.07204 3.31007 6.1352 3.05968C6.2697 2.8763 6.38823 2.73653 6.49088 2.64049C6.61343 2.53216 6.73459 2.43709 6.85438 2.35525C6.94096 2.29597 7.02471 2.2408 7.10565 2.18973C7.16314 2.15245 7.26473 2.09174 7.4104 2.00762C7.42992 1.99361 7.43598 1.98267 7.42853 1.97484C7.42685 1.97305 7.42447 1.97143 7.42139 1.96998L7.41141 1.96116C7.38304 1.9404 7.34057 1.94135 7.28402 1.96402C7.19295 1.99915 7.05542 2.06398 6.87144 2.15853C6.75476 2.21877 6.64528 2.28396 6.54299 2.35409C6.44262 2.42396 6.3651 2.48483 6.31042 2.53672C6.29772 2.54812 6.28354 2.56123 6.2679 2.57604C6.37865 2.185 6.4838 1.83695 6.58337 1.53189C6.59032 1.50645 6.58992 1.48965 6.58216 1.48147L6.57544 1.47713C6.5558 1.46996 6.51364 1.48918 6.44899 1.5348C6.32772 1.76886 6.24865 1.93818 6.21177 2.04276C6.16959 1.99042 6.12381 1.92844 6.07445 1.85683C6.01869 1.776 5.97722 1.71426 5.95006 1.67164L5.78107 1.39892C5.77383 1.38704 5.76141 1.36905 5.74381 1.34498L5.73963 1.34129C5.7313 1.33538 5.72324 1.33837 5.71546 1.35027C5.70555 1.36322 5.70105 1.37793 5.70197 1.39437C5.703 1.40665 5.70701 1.42147 5.71396 1.43883C5.72446 1.46365 5.74235 1.50314 5.76762 1.55727C5.8309 1.69374 5.91151 1.84612 6.00943 2.01445C6.06007 2.10245 6.10496 2.17647 6.1441 2.23648C5.9969 2.66395 5.84989 3.21955 5.70318 3.90336C5.47291 3.5643 5.23377 3.20701 4.98577 2.83146C4.98582 2.82796 4.98584 2.8244 4.98591 2.82085C4.98717 2.7575 4.99206 2.68496 5.00058 2.60324L5.01608 2.47377C5.04003 2.29478 5.07919 2.07341 5.13354 1.80971C5.13232 1.77723 5.11995 1.74678 5.09643 1.71839L5.09347 1.71568C5.08843 1.71036 5.08292 1.7129 5.07763 1.72406C5.00065 1.91603 4.95191 2.04845 4.93142 2.12134C4.87423 2.31194 4.83655 2.46546 4.81838 2.58191C4.60779 2.27993 4.48272 2.10807 4.44315 2.06636L4.44088 2.06401L4.43273 2.05564C4.39461 2.01916 4.37039 2.00861 4.36004 2.02399C4.29538 2.04061 4.27291 2.06454 4.29263 2.09579Z" fill="white"/>
</svg>
