<svg width="14" height="14" viewBox="0 0 14 14" fill="none" xmlns="http://www.w3.org/2000/svg">
    <path d="M12.334 2.33398H6.25398L5.66732 0.333984H1.66732C0.933984 0.333984 0.333984 0.933984 0.333984 1.66732V10.334C0.333984 11.0673 0.933984 11.6673 1.66732 11.6673H6.33398L7.00065 13.6673H12.334C13.0673 13.6673 13.6673 13.0673 13.6673 12.334V3.66732C13.6673 2.93398 13.0673 2.33398 12.334 2.33398ZM3.78065 8.72732C2.28065 8.72732 1.05398 7.50732 1.05398 6.00065C1.05398 4.49398 2.27398 3.27398 3.78065 3.27398C4.47398 3.27398 5.10732 3.52065 5.60732 3.98732L5.65398 4.02732L4.83398 4.81398L4.79398 4.78065C4.60065 4.60065 4.27398 4.38732 3.78065 4.38732C2.90732 4.38732 2.19398 5.11398 2.19398 6.00065C2.19398 6.88732 2.90732 7.61398 3.78065 7.61398C4.69398 7.61398 5.08732 7.03398 5.19398 6.64065H3.72065V5.60732H6.35398L6.36065 5.65398C6.38732 5.79398 6.39398 5.92065 6.39398 6.06065C6.39398 7.62732 5.32065 8.72732 3.78065 8.72732ZM7.80065 7.58732C8.02065 7.98732 8.29398 8.37398 8.59398 8.72065L8.23398 9.07398L7.80065 7.58732ZM8.31398 7.08065H7.65398L7.44732 6.38732H10.1073C10.1073 6.38732 9.88065 7.26065 9.06732 8.21398C8.72065 7.80065 8.47398 7.39398 8.31398 7.08065ZM13.0007 12.334C13.0007 12.7007 12.7007 13.0007 12.334 13.0007H7.66732L9.00065 11.6673L8.46065 9.82065L9.07398 9.20732L10.8607 11.0007L11.3473 10.514L9.54065 8.72732C10.1407 8.04065 10.6073 7.22732 10.8207 6.38732H11.6673V5.69398H9.24065V5.00065H8.54732V5.69398H7.24065L6.45398 3.00065H12.334C12.7007 3.00065 13.0007 3.30065 13.0007 3.66732V12.334Z"
          fill="#181818"/>
</svg>
