<svg width="336" height="21" viewBox="0 0 336 21" fill="none" xmlns="http://www.w3.org/2000/svg">
<path d="M1.04 5.81H3.614C4.03867 5.81 4.42433 5.86633 4.771 5.979C5.11767 6.083 5.41667 6.24333 5.668 6.46C5.91933 6.668 6.11433 6.928 6.253 7.24C6.39167 7.54333 6.461 7.89433 6.461 8.293C6.461 8.72633 6.38733 9.10333 6.24 9.424C6.09267 9.736 5.88467 9.996 5.616 10.204C5.34733 10.412 5.031 10.568 4.667 10.672C4.303 10.776 3.9 10.828 3.458 10.828H2.236V14H1.04V5.81ZM2.236 9.853H2.977C3.29767 9.853 3.59667 9.83133 3.874 9.788C4.15133 9.74467 4.38533 9.66667 4.576 9.554C4.77533 9.44133 4.93133 9.28533 5.044 9.086C5.15667 8.878 5.213 8.618 5.213 8.306C5.213 8.02 5.15667 7.78167 5.044 7.591C4.94 7.39167 4.80133 7.23133 4.628 7.11C4.45467 6.98867 4.25533 6.902 4.03 6.85C3.80467 6.798 3.575 6.772 3.341 6.772H2.236V9.853ZM7.74069 14V4.77H8.85869V14H7.74069ZM15.8848 11.075H11.5038V11.127C11.5038 11.803 11.6858 12.323 12.0498 12.687C12.4224 13.051 12.9251 13.233 13.5578 13.233C13.8871 13.233 14.1774 13.207 14.4288 13.155C14.6888 13.103 14.9704 13.0163 15.2738 12.895L15.5078 13.74C15.2564 13.8527 14.9574 13.9437 14.6108 14.013C14.2728 14.0823 13.9088 14.117 13.5188 14.117C13.0768 14.117 12.6608 14.0563 12.2708 13.935C11.8894 13.8137 11.5514 13.6273 11.2568 13.376C10.9621 13.116 10.7281 12.7867 10.5548 12.388C10.3901 11.9893 10.3078 11.5127 10.3078 10.958C10.3078 10.4813 10.3771 10.048 10.5158 9.658C10.6631 9.268 10.8668 8.93867 11.1268 8.67C11.3868 8.39267 11.6988 8.18033 12.0628 8.033C12.4354 7.877 12.8514 7.799 13.3108 7.799C13.7008 7.799 14.0518 7.864 14.3638 7.994C14.6844 8.124 14.9574 8.306 15.1828 8.54C15.4081 8.774 15.5814 9.05567 15.7028 9.385C15.8241 9.71433 15.8848 10.0783 15.8848 10.477V11.075ZM14.7018 10.256C14.7018 10.0307 14.6714 9.82267 14.6108 9.632C14.5588 9.43267 14.4721 9.25933 14.3508 9.112C14.2381 8.96467 14.0908 8.84767 13.9088 8.761C13.7268 8.67433 13.5058 8.631 13.2458 8.631C12.7691 8.631 12.3791 8.78267 12.0758 9.086C11.7811 9.38933 11.5991 9.788 11.5298 10.282L14.7018 10.256ZM17.3006 8.436C17.5086 8.332 17.7036 8.241 17.8856 8.163C18.0676 8.07633 18.2496 8.007 18.4316 7.955C18.6136 7.903 18.7999 7.864 18.9906 7.838C19.1812 7.812 19.3892 7.799 19.6146 7.799C19.9526 7.799 20.2602 7.838 20.5376 7.916C20.8236 7.98533 21.0662 8.10667 21.2656 8.28C21.4736 8.45333 21.6339 8.683 21.7466 8.969C21.8592 9.24633 21.9156 9.59733 21.9156 10.022V14H20.9666L20.8236 13.324H20.7976C20.5289 13.61 20.2342 13.8137 19.9136 13.935C19.5929 14.0563 19.2376 14.117 18.8476 14.117C18.5529 14.117 18.2799 14.078 18.0286 14C17.7859 13.9133 17.5736 13.7963 17.3916 13.649C17.2096 13.493 17.0666 13.3067 16.9626 13.09C16.8672 12.8733 16.8196 12.6307 16.8196 12.362C16.8196 11.7207 17.0709 11.2353 17.5736 10.906C18.0849 10.568 18.7566 10.399 19.5886 10.399H20.7586V9.879C20.7586 9.437 20.6459 9.138 20.4206 8.982C20.1952 8.81733 19.8919 8.735 19.5106 8.735C19.2852 8.735 19.0252 8.774 18.7306 8.852C18.4446 8.92133 18.1152 9.06 17.7426 9.268L17.3006 8.436ZM20.7716 11.179L19.8096 11.205C19.1596 11.2223 18.6959 11.3393 18.4186 11.556C18.1499 11.764 18.0156 12.0197 18.0156 12.323C18.0156 12.505 18.0459 12.661 18.1066 12.791C18.1672 12.9123 18.2452 13.0077 18.3406 13.077C18.4446 13.1463 18.5616 13.1983 18.6916 13.233C18.8302 13.259 18.9732 13.272 19.1206 13.272C19.4066 13.272 19.6969 13.207 19.9916 13.077C20.2862 12.9383 20.5462 12.7217 20.7716 12.427V11.179ZM27.0279 9.034C26.7419 8.89533 26.4819 8.8 26.2479 8.748C26.0139 8.696 25.7799 8.67 25.5459 8.67C25.1299 8.67 24.8222 8.748 24.6229 8.904C24.4236 9.05133 24.3239 9.25067 24.3239 9.502C24.3239 9.684 24.3932 9.84433 24.5319 9.983C24.6706 10.113 24.9609 10.243 25.4029 10.373L25.7929 10.49C26.3736 10.6633 26.8112 10.8887 27.1059 11.166C27.4092 11.4347 27.5609 11.803 27.5609 12.271C27.5609 12.8257 27.3529 13.272 26.9369 13.61C26.5296 13.948 25.9576 14.117 25.2209 14.117C24.8309 14.117 24.4539 14.0823 24.0899 14.013C23.7346 13.9437 23.4269 13.8483 23.1669 13.727L23.4399 12.83C23.6912 12.9513 23.9642 13.051 24.2589 13.129C24.5536 13.1983 24.8526 13.233 25.1559 13.233C25.5459 13.233 25.8536 13.1637 26.0789 13.025C26.3129 12.8863 26.4299 12.6567 26.4299 12.336C26.4299 12.0587 26.3302 11.8637 26.1309 11.751C25.9316 11.6297 25.6456 11.5127 25.2729 11.4L24.8699 11.27C24.3066 11.088 23.8862 10.8627 23.6089 10.594C23.3402 10.3167 23.2059 9.96133 23.2059 9.528C23.2059 9.268 23.2622 9.02967 23.3749 8.813C23.4876 8.59633 23.6392 8.41433 23.8299 8.267C24.0292 8.11967 24.2632 8.007 24.5319 7.929C24.8006 7.84233 25.0952 7.799 25.4159 7.799C25.7192 7.799 26.0312 7.82933 26.3519 7.89C26.6812 7.942 26.9932 8.033 27.2879 8.163L27.0279 9.034ZM34.0264 11.075H29.6454V11.127C29.6454 11.803 29.8274 12.323 30.1914 12.687C30.564 13.051 31.0667 13.233 31.6994 13.233C32.0287 13.233 32.319 13.207 32.5704 13.155C32.8304 13.103 33.112 13.0163 33.4154 12.895L33.6494 13.74C33.398 13.8527 33.099 13.9437 32.7524 14.013C32.4144 14.0823 32.0504 14.117 31.6604 14.117C31.2184 14.117 30.8024 14.0563 30.4124 13.935C30.031 13.8137 29.693 13.6273 29.3984 13.376C29.1037 13.116 28.8697 12.7867 28.6964 12.388C28.5317 11.9893 28.4494 11.5127 28.4494 10.958C28.4494 10.4813 28.5187 10.048 28.6574 9.658C28.8047 9.268 29.0084 8.93867 29.2684 8.67C29.5284 8.39267 29.8404 8.18033 30.2044 8.033C30.577 7.877 30.993 7.799 31.4524 7.799C31.8424 7.799 32.1934 7.864 32.5054 7.994C32.826 8.124 33.099 8.306 33.3244 8.54C33.5497 8.774 33.723 9.05567 33.8444 9.385C33.9657 9.71433 34.0264 10.0783 34.0264 10.477V11.075ZM32.8434 10.256C32.8434 10.0307 32.813 9.82267 32.7524 9.632C32.7004 9.43267 32.6137 9.25933 32.4924 9.112C32.3797 8.96467 32.2324 8.84767 32.0504 8.761C31.8684 8.67433 31.6474 8.631 31.3874 8.631C30.9107 8.631 30.5207 8.78267 30.2174 9.086C29.9227 9.38933 29.7407 9.788 29.6714 10.282L32.8434 10.256ZM41.158 13.233C41.4353 13.233 41.678 13.2027 41.886 13.142C42.094 13.0813 42.2977 13.0033 42.497 12.908L42.744 13.766C42.276 14 41.717 14.117 41.067 14.117C40.625 14.117 40.209 14.052 39.819 13.922C39.4377 13.792 39.0997 13.597 38.805 13.337C38.519 13.0683 38.2937 12.739 38.129 12.349C37.9643 11.9503 37.882 11.4867 37.882 10.958C37.882 10.4727 37.96 10.035 38.116 9.645C38.272 9.255 38.4887 8.92567 38.766 8.657C39.0433 8.37967 39.377 8.16733 39.767 8.02C40.157 7.87267 40.586 7.799 41.054 7.799C41.3227 7.799 41.5827 7.82067 41.834 7.864C42.094 7.89867 42.3887 7.98967 42.718 8.137L42.458 9.008C42.0593 8.78267 41.6303 8.67 41.171 8.67C40.5383 8.67 40.027 8.86933 39.637 9.268C39.247 9.658 39.052 10.2083 39.052 10.919C39.052 11.361 39.1127 11.7293 39.234 12.024C39.3553 12.3187 39.5157 12.557 39.715 12.739C39.9143 12.9123 40.1397 13.038 40.391 13.116C40.6423 13.194 40.898 13.233 41.158 13.233ZM44.062 14V4.77H45.18V14H44.062ZM47.1881 14V7.89H48.3321V14H47.1881ZM47.7601 6.317C47.5607 6.317 47.3874 6.252 47.2401 6.122C47.1014 5.98333 47.0321 5.81433 47.0321 5.615C47.0321 5.41567 47.1014 5.24667 47.2401 5.108C47.3874 4.96933 47.5607 4.9 47.7601 4.9C47.9507 4.9 48.1197 4.96933 48.2671 5.108C48.4144 5.24667 48.4881 5.41567 48.4881 5.615C48.4881 5.81433 48.4144 5.98333 48.2671 6.122C48.1197 6.252 47.9507 6.317 47.7601 6.317ZM53.1043 13.233C53.3816 13.233 53.6243 13.2027 53.8323 13.142C54.0403 13.0813 54.244 13.0033 54.4433 12.908L54.6903 13.766C54.2223 14 53.6633 14.117 53.0133 14.117C52.5713 14.117 52.1553 14.052 51.7653 13.922C51.384 13.792 51.046 13.597 50.7513 13.337C50.4653 13.0683 50.24 12.739 50.0753 12.349C49.9106 11.9503 49.8283 11.4867 49.8283 10.958C49.8283 10.4727 49.9063 10.035 50.0623 9.645C50.2183 9.255 50.435 8.92567 50.7123 8.657C50.9896 8.37967 51.3233 8.16733 51.7133 8.02C52.1033 7.87267 52.5323 7.799 53.0003 7.799C53.269 7.799 53.529 7.82067 53.7803 7.864C54.0403 7.89867 54.335 7.98967 54.6643 8.137L54.4043 9.008C54.0056 8.78267 53.5766 8.67 53.1173 8.67C52.4846 8.67 51.9733 8.86933 51.5833 9.268C51.1933 9.658 50.9983 10.2083 50.9983 10.919C50.9983 11.361 51.059 11.7293 51.1803 12.024C51.3016 12.3187 51.462 12.557 51.6613 12.739C51.8606 12.9123 52.086 13.038 52.3373 13.116C52.5886 13.194 52.8443 13.233 53.1043 13.233ZM57.1003 11.764V14H55.9693V4.77H57.1003V10.516L59.5573 7.89H60.9743L58.4653 10.464L61.0913 14H59.7393L57.7113 11.153L57.1003 11.764ZM70.5095 10.88C70.5095 11.3913 70.4315 11.8507 70.2755 12.258C70.1195 12.6567 69.9028 12.9947 69.6255 13.272C69.3568 13.5493 69.0405 13.7617 68.6765 13.909C68.3125 14.0477 67.9181 14.117 67.4935 14.117C67.0688 14.117 66.6745 14.052 66.3105 13.922C65.9551 13.7833 65.6431 13.584 65.3745 13.324C65.1145 13.0553 64.9065 12.7303 64.7505 12.349C64.6031 11.959 64.5295 11.5127 64.5295 11.01C64.5295 10.4987 64.6075 10.0437 64.7635 9.645C64.9195 9.24633 65.1318 8.91267 65.4005 8.644C65.6778 8.36667 65.9985 8.15867 66.3625 8.02C66.7265 7.87267 67.1208 7.799 67.5455 7.799C67.9701 7.799 68.3601 7.864 68.7155 7.994C69.0795 8.124 69.3915 8.319 69.6515 8.579C69.9201 8.839 70.1281 9.164 70.2755 9.554C70.4315 9.93533 70.5095 10.3773 70.5095 10.88ZM69.3135 10.945C69.3135 10.5377 69.2615 10.191 69.1575 9.905C69.0535 9.619 68.9148 9.385 68.7415 9.203C68.5768 9.021 68.3861 8.891 68.1695 8.813C67.9528 8.72633 67.7318 8.683 67.5065 8.683C67.2811 8.683 67.0601 8.71767 66.8435 8.787C66.6268 8.85633 66.4361 8.97767 66.2715 9.151C66.1068 9.32433 65.9725 9.55833 65.8685 9.853C65.7731 10.139 65.7255 10.503 65.7255 10.945C65.7255 11.3523 65.7775 11.7033 65.8815 11.998C65.9855 12.284 66.1198 12.518 66.2845 12.7C66.4578 12.882 66.6528 13.0163 66.8695 13.103C67.0861 13.1897 67.3071 13.233 67.5325 13.233C67.7578 13.233 67.9788 13.1983 68.1955 13.129C68.4121 13.051 68.6028 12.9253 68.7675 12.752C68.9321 12.57 69.0621 12.336 69.1575 12.05C69.2615 11.7553 69.3135 11.387 69.3135 10.945ZM73.0456 14H71.9016V7.89H72.7986L72.9676 8.735C73.2709 8.43167 73.5872 8.202 73.9166 8.046C74.2546 7.88133 74.6402 7.799 75.0736 7.799C75.6976 7.799 76.1872 7.97667 76.5426 8.332C76.8979 8.67867 77.0756 9.164 77.0756 9.788V14H75.9316V9.957C75.9316 9.58433 75.8319 9.28967 75.6326 9.073C75.4419 8.84767 75.1472 8.735 74.7486 8.735C74.1419 8.735 73.5742 9.008 73.0456 9.554V14ZM109.002 14V7.89H110.146V14H109.002ZM109.574 6.317C109.374 6.317 109.201 6.252 109.054 6.122C108.915 5.98333 108.846 5.81433 108.846 5.615C108.846 5.41567 108.915 5.24667 109.054 5.108C109.201 4.96933 109.374 4.9 109.574 4.9C109.764 4.9 109.933 4.96933 110.081 5.108C110.228 5.24667 110.302 5.41567 110.302 5.615C110.302 5.81433 110.228 5.98333 110.081 6.122C109.933 6.252 109.764 6.317 109.574 6.317ZM114.918 13.233C115.195 13.233 115.438 13.2027 115.646 13.142C115.854 13.0813 116.057 13.0033 116.257 12.908L116.504 13.766C116.036 14 115.477 14.117 114.827 14.117C114.385 14.117 113.969 14.052 113.579 13.922C113.197 13.792 112.859 13.597 112.565 13.337C112.279 13.0683 112.053 12.739 111.889 12.349C111.724 11.9503 111.642 11.4867 111.642 10.958C111.642 10.4727 111.72 10.035 111.876 9.645C112.032 9.255 112.248 8.92567 112.526 8.657C112.803 8.37967 113.137 8.16733 113.527 8.02C113.917 7.87267 114.346 7.799 114.814 7.799C115.082 7.799 115.342 7.82067 115.594 7.864C115.854 7.89867 116.148 7.98967 116.478 8.137L116.218 9.008C115.819 8.78267 115.39 8.67 114.931 8.67C114.298 8.67 113.787 8.86933 113.397 9.268C113.007 9.658 112.812 10.2083 112.812 10.919C112.812 11.361 112.872 11.7293 112.994 12.024C113.115 12.3187 113.275 12.557 113.475 12.739C113.674 12.9123 113.899 13.038 114.151 13.116C114.402 13.194 114.658 13.233 114.918 13.233ZM122.979 10.88C122.979 11.3913 122.901 11.8507 122.745 12.258C122.589 12.6567 122.373 12.9947 122.095 13.272C121.827 13.5493 121.51 13.7617 121.146 13.909C120.782 14.0477 120.388 14.117 119.963 14.117C119.539 14.117 119.144 14.052 118.78 13.922C118.425 13.7833 118.113 13.584 117.844 13.324C117.584 13.0553 117.376 12.7303 117.22 12.349C117.073 11.959 116.999 11.5127 116.999 11.01C116.999 10.4987 117.077 10.0437 117.233 9.645C117.389 9.24633 117.602 8.91267 117.87 8.644C118.148 8.36667 118.468 8.15867 118.832 8.02C119.196 7.87267 119.591 7.799 120.015 7.799C120.44 7.799 120.83 7.864 121.185 7.994C121.549 8.124 121.861 8.319 122.121 8.579C122.39 8.839 122.598 9.164 122.745 9.554C122.901 9.93533 122.979 10.3773 122.979 10.88ZM121.783 10.945C121.783 10.5377 121.731 10.191 121.627 9.905C121.523 9.619 121.385 9.385 121.211 9.203C121.047 9.021 120.856 8.891 120.639 8.813C120.423 8.72633 120.202 8.683 119.976 8.683C119.751 8.683 119.53 8.71767 119.313 8.787C119.097 8.85633 118.906 8.97767 118.741 9.151C118.577 9.32433 118.442 9.55833 118.338 9.853C118.243 10.139 118.195 10.503 118.195 10.945C118.195 11.3523 118.247 11.7033 118.351 11.998C118.455 12.284 118.59 12.518 118.754 12.7C118.928 12.882 119.123 13.0163 119.339 13.103C119.556 13.1897 119.777 13.233 120.002 13.233C120.228 13.233 120.449 13.1983 120.665 13.129C120.882 13.051 121.073 12.9253 121.237 12.752C121.402 12.57 121.532 12.336 121.627 12.05C121.731 11.7553 121.783 11.387 121.783 10.945ZM125.515 14H124.371V7.89H125.268L125.437 8.735C125.741 8.43167 126.057 8.202 126.386 8.046C126.724 7.88133 127.11 7.799 127.543 7.799C128.167 7.799 128.657 7.97667 129.012 8.332C129.368 8.67867 129.545 9.164 129.545 9.788V14H128.401V9.957C128.401 9.58433 128.302 9.28967 128.102 9.073C127.912 8.84767 127.617 8.735 127.218 8.735C126.612 8.735 126.044 9.008 125.515 9.554V14ZM137.408 8.748H135.614V12.297C135.614 12.6003 135.688 12.804 135.835 12.908C135.991 13.012 136.191 13.064 136.433 13.064C136.607 13.064 136.797 13.0467 137.005 13.012C137.213 12.9687 137.395 12.921 137.551 12.869L137.733 13.74C137.56 13.8093 137.339 13.87 137.07 13.922C136.802 13.974 136.52 14 136.225 14C135.619 14 135.177 13.87 134.899 13.61C134.622 13.3413 134.483 12.9557 134.483 12.453V8.748H133.573V7.89H134.483V5.94H135.614V7.89H137.408V8.748ZM144.485 10.88C144.485 11.3913 144.407 11.8507 144.251 12.258C144.095 12.6567 143.878 12.9947 143.601 13.272C143.332 13.5493 143.016 13.7617 142.652 13.909C142.288 14.0477 141.894 14.117 141.469 14.117C141.044 14.117 140.65 14.052 140.286 13.922C139.931 13.7833 139.619 13.584 139.35 13.324C139.09 13.0553 138.882 12.7303 138.726 12.349C138.579 11.959 138.505 11.5127 138.505 11.01C138.505 10.4987 138.583 10.0437 138.739 9.645C138.895 9.24633 139.107 8.91267 139.376 8.644C139.653 8.36667 139.974 8.15867 140.338 8.02C140.702 7.87267 141.096 7.799 141.521 7.799C141.946 7.799 142.336 7.864 142.691 7.994C143.055 8.124 143.367 8.319 143.627 8.579C143.896 8.839 144.104 9.164 144.251 9.554C144.407 9.93533 144.485 10.3773 144.485 10.88ZM143.289 10.945C143.289 10.5377 143.237 10.191 143.133 9.905C143.029 9.619 142.89 9.385 142.717 9.203C142.552 9.021 142.362 8.891 142.145 8.813C141.928 8.72633 141.707 8.683 141.482 8.683C141.257 8.683 141.036 8.71767 140.819 8.787C140.602 8.85633 140.412 8.97767 140.247 9.151C140.082 9.32433 139.948 9.55833 139.844 9.853C139.749 10.139 139.701 10.503 139.701 10.945C139.701 11.3523 139.753 11.7033 139.857 11.998C139.961 12.284 140.095 12.518 140.26 12.7C140.433 12.882 140.628 13.0163 140.845 13.103C141.062 13.1897 141.283 13.233 141.508 13.233C141.733 13.233 141.954 13.1983 142.171 13.129C142.388 13.051 142.578 12.9253 142.743 12.752C142.908 12.57 143.038 12.336 143.133 12.05C143.237 11.7553 143.289 11.387 143.289 10.945ZM153.959 11.075H149.578V11.127C149.578 11.803 149.76 12.323 150.124 12.687C150.497 13.051 150.999 13.233 151.632 13.233C151.961 13.233 152.252 13.207 152.503 13.155C152.763 13.103 153.045 13.0163 153.348 12.895L153.582 13.74C153.331 13.8527 153.032 13.9437 152.685 14.013C152.347 14.0823 151.983 14.117 151.593 14.117C151.151 14.117 150.735 14.0563 150.345 13.935C149.964 13.8137 149.626 13.6273 149.331 13.376C149.036 13.116 148.802 12.7867 148.629 12.388C148.464 11.9893 148.382 11.5127 148.382 10.958C148.382 10.4813 148.451 10.048 148.59 9.658C148.737 9.268 148.941 8.93867 149.201 8.67C149.461 8.39267 149.773 8.18033 150.137 8.033C150.51 7.877 150.926 7.799 151.385 7.799C151.775 7.799 152.126 7.864 152.438 7.994C152.759 8.124 153.032 8.306 153.257 8.54C153.482 8.774 153.656 9.05567 153.777 9.385C153.898 9.71433 153.959 10.0783 153.959 10.477V11.075ZM152.776 10.256C152.776 10.0307 152.746 9.82267 152.685 9.632C152.633 9.43267 152.546 9.25933 152.425 9.112C152.312 8.96467 152.165 8.84767 151.983 8.761C151.801 8.67433 151.58 8.631 151.32 8.631C150.843 8.631 150.453 8.78267 150.15 9.086C149.855 9.38933 149.673 9.788 149.604 10.282L152.776 10.256ZM156.454 14H155.31V7.89H156.207L156.376 8.735C156.679 8.43167 156.995 8.202 157.325 8.046C157.663 7.88133 158.048 7.799 158.482 7.799C159.106 7.799 159.595 7.97667 159.951 8.332C160.306 8.67867 160.484 9.164 160.484 9.788V14H159.34V9.957C159.34 9.58433 159.24 9.28967 159.041 9.073C158.85 8.84767 158.555 8.735 158.157 8.735C157.55 8.735 156.982 9.008 156.454 9.554V14ZM165.402 8.748H163.608V12.297C163.608 12.6003 163.681 12.804 163.829 12.908C163.985 13.012 164.184 13.064 164.427 13.064C164.6 13.064 164.791 13.0467 164.999 13.012C165.207 12.9687 165.389 12.921 165.545 12.869L165.727 13.74C165.553 13.8093 165.332 13.87 165.064 13.922C164.795 13.974 164.513 14 164.219 14C163.612 14 163.17 13.87 162.893 13.61C162.615 13.3413 162.477 12.9557 162.477 12.453V8.748H161.567V7.89H162.477V5.94H163.608V7.89H165.402V8.748ZM172.126 11.075H167.745V11.127C167.745 11.803 167.927 12.323 168.291 12.687C168.664 13.051 169.166 13.233 169.799 13.233C170.128 13.233 170.419 13.207 170.67 13.155C170.93 13.103 171.212 13.0163 171.515 12.895L171.749 13.74C171.498 13.8527 171.199 13.9437 170.852 14.013C170.514 14.0823 170.15 14.117 169.76 14.117C169.318 14.117 168.902 14.0563 168.512 13.935C168.131 13.8137 167.793 13.6273 167.498 13.376C167.203 13.116 166.969 12.7867 166.796 12.388C166.631 11.9893 166.549 11.5127 166.549 10.958C166.549 10.4813 166.618 10.048 166.757 9.658C166.904 9.268 167.108 8.93867 167.368 8.67C167.628 8.39267 167.94 8.18033 168.304 8.033C168.677 7.877 169.093 7.799 169.552 7.799C169.942 7.799 170.293 7.864 170.605 7.994C170.926 8.124 171.199 8.306 171.424 8.54C171.649 8.774 171.823 9.05567 171.944 9.385C172.065 9.71433 172.126 10.0783 172.126 10.477V11.075ZM170.943 10.256C170.943 10.0307 170.913 9.82267 170.852 9.632C170.8 9.43267 170.713 9.25933 170.592 9.112C170.479 8.96467 170.332 8.84767 170.15 8.761C169.968 8.67433 169.747 8.631 169.487 8.631C169.01 8.631 168.62 8.78267 168.317 9.086C168.022 9.38933 167.84 9.788 167.771 10.282L170.943 10.256ZM173.451 14V7.89H174.309L174.504 9.112C174.651 8.722 174.894 8.40567 175.232 8.163C175.57 7.92033 175.96 7.799 176.402 7.799C176.627 7.799 176.813 7.81633 176.961 7.851C177.108 7.88567 177.242 7.929 177.364 7.981L177.143 8.982C177.039 8.93 176.922 8.88667 176.792 8.852C176.67 8.81733 176.523 8.8 176.35 8.8C176.098 8.8 175.864 8.84333 175.648 8.93C175.44 9.01667 175.253 9.14667 175.089 9.32C174.933 9.49333 174.807 9.71 174.712 9.97C174.625 10.2213 174.582 10.5117 174.582 10.841V14H173.451ZM186.799 10.88C186.799 11.3913 186.721 11.8507 186.565 12.258C186.409 12.6567 186.192 12.9947 185.915 13.272C185.646 13.5493 185.33 13.7617 184.966 13.909C184.602 14.0477 184.207 14.117 183.783 14.117C183.358 14.117 182.964 14.052 182.6 13.922C182.244 13.7833 181.932 13.584 181.664 13.324C181.404 13.0553 181.196 12.7303 181.04 12.349C180.892 11.959 180.819 11.5127 180.819 11.01C180.819 10.4987 180.897 10.0437 181.053 9.645C181.209 9.24633 181.421 8.91267 181.69 8.644C181.967 8.36667 182.288 8.15867 182.652 8.02C183.016 7.87267 183.41 7.799 183.835 7.799C184.259 7.799 184.649 7.864 185.005 7.994C185.369 8.124 185.681 8.319 185.941 8.579C186.209 8.839 186.417 9.164 186.565 9.554C186.721 9.93533 186.799 10.3773 186.799 10.88ZM185.603 10.945C185.603 10.5377 185.551 10.191 185.447 9.905C185.343 9.619 185.204 9.385 185.031 9.203C184.866 9.021 184.675 8.891 184.459 8.813C184.242 8.72633 184.021 8.683 183.796 8.683C183.57 8.683 183.349 8.71767 183.133 8.787C182.916 8.85633 182.725 8.97767 182.561 9.151C182.396 9.32433 182.262 9.55833 182.158 9.853C182.062 10.139 182.015 10.503 182.015 10.945C182.015 11.3523 182.067 11.7033 182.171 11.998C182.275 12.284 182.409 12.518 182.574 12.7C182.747 12.882 182.942 13.0163 183.159 13.103C183.375 13.1897 183.596 13.233 183.822 13.233C184.047 13.233 184.268 13.1983 184.485 13.129C184.701 13.051 184.892 12.9253 185.057 12.752C185.221 12.57 185.351 12.336 185.447 12.05C185.551 11.7553 185.603 11.387 185.603 10.945ZM191.402 8.748H189.608V12.297C189.608 12.6003 189.681 12.804 189.829 12.908C189.985 13.012 190.184 13.064 190.427 13.064C190.6 13.064 190.791 13.0467 190.999 13.012C191.207 12.9687 191.389 12.921 191.545 12.869L191.727 13.74C191.553 13.8093 191.332 13.87 191.064 13.922C190.795 13.974 190.513 14 190.219 14C189.612 14 189.17 13.87 188.893 13.61C188.615 13.3413 188.477 12.9557 188.477 12.453V8.748H187.567V7.89H188.477V5.94H189.608V7.89H191.402V8.748ZM194.083 14H192.939V4.77H194.083V8.67C194.369 8.41867 194.685 8.21067 195.032 8.046C195.379 7.88133 195.76 7.799 196.176 7.799C196.514 7.799 196.809 7.851 197.06 7.955C197.311 8.05033 197.515 8.189 197.671 8.371C197.836 8.54433 197.957 8.75233 198.035 8.995C198.122 9.23767 198.165 9.502 198.165 9.788V14H197.021V10.074C197.021 9.606 196.926 9.268 196.735 9.06C196.544 8.84333 196.254 8.735 195.864 8.735C195.569 8.735 195.27 8.80867 194.967 8.956C194.672 9.10333 194.378 9.31133 194.083 9.58V14ZM205.147 11.075H200.766V11.127C200.766 11.803 200.948 12.323 201.312 12.687C201.684 13.051 202.187 13.233 202.82 13.233C203.149 13.233 203.439 13.207 203.691 13.155C203.951 13.103 204.232 13.0163 204.536 12.895L204.77 13.74C204.518 13.8527 204.219 13.9437 203.873 14.013C203.535 14.0823 203.171 14.117 202.781 14.117C202.339 14.117 201.923 14.0563 201.533 13.935C201.151 13.8137 200.813 13.6273 200.519 13.376C200.224 13.116 199.99 12.7867 199.817 12.388C199.652 11.9893 199.57 11.5127 199.57 10.958C199.57 10.4813 199.639 10.048 199.778 9.658C199.925 9.268 200.129 8.93867 200.389 8.67C200.649 8.39267 200.961 8.18033 201.325 8.033C201.697 7.877 202.113 7.799 202.573 7.799C202.963 7.799 203.314 7.864 203.626 7.994C203.946 8.124 204.219 8.306 204.445 8.54C204.67 8.774 204.843 9.05567 204.965 9.385C205.086 9.71433 205.147 10.0783 205.147 10.477V11.075ZM203.964 10.256C203.964 10.0307 203.933 9.82267 203.873 9.632C203.821 9.43267 203.734 9.25933 203.613 9.112C203.5 8.96467 203.353 8.84767 203.171 8.761C202.989 8.67433 202.768 8.631 202.508 8.631C202.031 8.631 201.641 8.78267 201.338 9.086C201.043 9.38933 200.861 9.788 200.792 10.282L203.964 10.256ZM206.471 14V7.89H207.329L207.524 9.112C207.672 8.722 207.914 8.40567 208.252 8.163C208.59 7.92033 208.98 7.799 209.422 7.799C209.648 7.799 209.834 7.81633 209.981 7.851C210.129 7.88567 210.263 7.929 210.384 7.981L210.163 8.982C210.059 8.93 209.942 8.88667 209.812 8.852C209.691 8.81733 209.544 8.8 209.37 8.8C209.119 8.8 208.885 8.84333 208.668 8.93C208.46 9.01667 208.274 9.14667 208.109 9.32C207.953 9.49333 207.828 9.71 207.732 9.97C207.646 10.2213 207.602 10.5117 207.602 10.841V14H206.471ZM214.268 14V4.77H215.386V14H214.268ZM217.277 8.436C217.485 8.332 217.68 8.241 217.862 8.163C218.044 8.07633 218.226 8.007 218.408 7.955C218.59 7.903 218.776 7.864 218.967 7.838C219.158 7.812 219.366 7.799 219.591 7.799C219.929 7.799 220.237 7.838 220.514 7.916C220.8 7.98533 221.043 8.10667 221.242 8.28C221.45 8.45333 221.61 8.683 221.723 8.969C221.836 9.24633 221.892 9.59733 221.892 10.022V14H220.943L220.8 13.324H220.774C220.505 13.61 220.211 13.8137 219.89 13.935C219.569 14.0563 219.214 14.117 218.824 14.117C218.529 14.117 218.256 14.078 218.005 14C217.762 13.9133 217.55 13.7963 217.368 13.649C217.186 13.493 217.043 13.3067 216.939 13.09C216.844 12.8733 216.796 12.6307 216.796 12.362C216.796 11.7207 217.047 11.2353 217.55 10.906C218.061 10.568 218.733 10.399 219.565 10.399H220.735V9.879C220.735 9.437 220.622 9.138 220.397 8.982C220.172 8.81733 219.868 8.735 219.487 8.735C219.262 8.735 219.002 8.774 218.707 8.852C218.421 8.92133 218.092 9.06 217.719 9.268L217.277 8.436ZM220.748 11.179L219.786 11.205C219.136 11.2223 218.672 11.3393 218.395 11.556C218.126 11.764 217.992 12.0197 217.992 12.323C217.992 12.505 218.022 12.661 218.083 12.791C218.144 12.9123 218.222 13.0077 218.317 13.077C218.421 13.1463 218.538 13.1983 218.668 13.233C218.807 13.259 218.95 13.272 219.097 13.272C219.383 13.272 219.673 13.207 219.968 13.077C220.263 12.9383 220.523 12.7217 220.748 12.427V11.179ZM224.716 14H223.572V7.89H224.469L224.638 8.735C224.942 8.43167 225.258 8.202 225.587 8.046C225.925 7.88133 226.311 7.799 226.744 7.799C227.368 7.799 227.858 7.97667 228.213 8.332C228.569 8.67867 228.746 9.164 228.746 9.788V14H227.602V9.957C227.602 9.58433 227.503 9.28967 227.303 9.073C227.113 8.84767 226.818 8.735 226.419 8.735C225.813 8.735 225.245 9.008 224.716 9.554V14ZM230.362 9.918C230.362 9.58 230.423 9.281 230.544 9.021C230.666 8.75233 230.835 8.527 231.051 8.345C231.277 8.163 231.541 8.02867 231.844 7.942C232.148 7.84667 232.477 7.799 232.832 7.799C232.962 7.799 233.088 7.80767 233.209 7.825C233.331 7.84233 233.452 7.864 233.573 7.89H236.212V8.735H235.809L234.769 8.592C234.934 8.76533 235.06 8.96467 235.146 9.19C235.242 9.41533 235.289 9.65367 235.289 9.905C235.289 10.243 235.229 10.5463 235.107 10.815C234.986 11.075 234.817 11.296 234.6 11.478C234.384 11.66 234.124 11.7987 233.82 11.894C233.517 11.9807 233.188 12.024 232.832 12.024C232.564 12.024 232.33 12.0067 232.13 11.972C231.931 12.0413 231.792 12.1323 231.714 12.245C231.636 12.349 231.597 12.4617 231.597 12.583C231.597 12.7823 231.662 12.9167 231.792 12.986C231.931 13.0553 232.113 13.09 232.338 13.09H233.95C234.626 13.09 235.142 13.246 235.497 13.558C235.861 13.8613 236.043 14.2773 236.043 14.806C236.043 15.144 235.97 15.4473 235.822 15.716C235.675 15.9847 235.463 16.2143 235.185 16.405C234.917 16.5957 234.587 16.7387 234.197 16.834C233.807 16.938 233.37 16.99 232.884 16.99C232 16.99 231.294 16.8297 230.765 16.509C230.245 16.197 229.985 15.7333 229.985 15.118C229.985 14.7973 230.085 14.5287 230.284 14.312C230.492 14.0953 230.761 13.9307 231.09 13.818C230.917 13.6967 230.787 13.571 230.7 13.441C230.614 13.3023 230.57 13.1203 230.57 12.895C230.57 12.6263 230.648 12.3967 230.804 12.206C230.969 12.0153 231.19 11.8637 231.467 11.751C231.121 11.595 230.848 11.3697 230.648 11.075C230.458 10.7717 230.362 10.386 230.362 9.918ZM231.753 14C231.311 14.1993 231.09 14.5113 231.09 14.936C231.09 15.6987 231.706 16.08 232.936 16.08C233.3 16.08 233.608 16.0453 233.859 15.976C234.111 15.9067 234.314 15.8157 234.47 15.703C234.626 15.5903 234.739 15.4647 234.808 15.326C234.886 15.1873 234.925 15.0443 234.925 14.897C234.925 14.533 234.8 14.2903 234.548 14.169C234.306 14.0563 233.998 14 233.625 14H231.753ZM234.132 9.944C234.132 9.48467 234.011 9.14667 233.768 8.93C233.534 8.71333 233.222 8.605 232.832 8.605C232.442 8.605 232.126 8.71333 231.883 8.93C231.649 9.14667 231.532 9.46733 231.532 9.892C231.532 10.3427 231.649 10.6763 231.883 10.893C232.126 11.101 232.442 11.205 232.832 11.205C233.222 11.205 233.534 11.101 233.768 10.893C234.011 10.685 234.132 10.3687 234.132 9.944ZM241.582 7.89H242.726V14H241.829L241.673 13.233H241.621C241.395 13.4843 241.114 13.6967 240.776 13.87C240.446 14.0347 240.061 14.117 239.619 14.117C238.986 14.117 238.47 13.9393 238.072 13.584C237.682 13.22 237.487 12.674 237.487 11.946V7.89H238.631V11.803C238.631 12.063 238.661 12.284 238.722 12.466C238.791 12.648 238.878 12.7953 238.982 12.908C239.094 13.012 239.224 13.09 239.372 13.142C239.519 13.1853 239.679 13.207 239.853 13.207C240.199 13.207 240.511 13.1333 240.789 12.986C241.066 12.8387 241.33 12.635 241.582 12.375V7.89ZM244.559 8.436C244.767 8.332 244.962 8.241 245.144 8.163C245.326 8.07633 245.508 8.007 245.69 7.955C245.872 7.903 246.059 7.864 246.249 7.838C246.44 7.812 246.648 7.799 246.873 7.799C247.211 7.799 247.519 7.838 247.796 7.916C248.082 7.98533 248.325 8.10667 248.524 8.28C248.732 8.45333 248.893 8.683 249.005 8.969C249.118 9.24633 249.174 9.59733 249.174 10.022V14H248.225L248.082 13.324H248.056C247.788 13.61 247.493 13.8137 247.172 13.935C246.852 14.0563 246.496 14.117 246.106 14.117C245.812 14.117 245.539 14.078 245.287 14C245.045 13.9133 244.832 13.7963 244.65 13.649C244.468 13.493 244.325 13.3067 244.221 13.09C244.126 12.8733 244.078 12.6307 244.078 12.362C244.078 11.7207 244.33 11.2353 244.832 10.906C245.344 10.568 246.015 10.399 246.847 10.399H248.017V9.879C248.017 9.437 247.905 9.138 247.679 8.982C247.454 8.81733 247.151 8.735 246.769 8.735C246.544 8.735 246.284 8.774 245.989 8.852C245.703 8.92133 245.374 9.06 245.001 9.268L244.559 8.436ZM248.03 11.179L247.068 11.205C246.418 11.2223 245.955 11.3393 245.677 11.556C245.409 11.764 245.274 12.0197 245.274 12.323C245.274 12.505 245.305 12.661 245.365 12.791C245.426 12.9123 245.504 13.0077 245.599 13.077C245.703 13.1463 245.82 13.1983 245.95 13.233C246.089 13.259 246.232 13.272 246.379 13.272C246.665 13.272 246.956 13.207 247.25 13.077C247.545 12.9383 247.805 12.7217 248.03 12.427V11.179ZM250.764 9.918C250.764 9.58 250.824 9.281 250.946 9.021C251.067 8.75233 251.236 8.527 251.453 8.345C251.678 8.163 251.942 8.02867 252.246 7.942C252.549 7.84667 252.878 7.799 253.234 7.799C253.364 7.799 253.489 7.80767 253.611 7.825C253.732 7.84233 253.853 7.864 253.975 7.89H256.614V8.735H256.211L255.171 8.592C255.335 8.76533 255.461 8.96467 255.548 9.19C255.643 9.41533 255.691 9.65367 255.691 9.905C255.691 10.243 255.63 10.5463 255.509 10.815C255.387 11.075 255.218 11.296 255.002 11.478C254.785 11.66 254.525 11.7987 254.222 11.894C253.918 11.9807 253.589 12.024 253.234 12.024C252.965 12.024 252.731 12.0067 252.532 11.972C252.332 12.0413 252.194 12.1323 252.116 12.245C252.038 12.349 251.999 12.4617 251.999 12.583C251.999 12.7823 252.064 12.9167 252.194 12.986C252.332 13.0553 252.514 13.09 252.74 13.09H254.352C255.028 13.09 255.543 13.246 255.899 13.558C256.263 13.8613 256.445 14.2773 256.445 14.806C256.445 15.144 256.371 15.4473 256.224 15.716C256.076 15.9847 255.864 16.2143 255.587 16.405C255.318 16.5957 254.989 16.7387 254.599 16.834C254.209 16.938 253.771 16.99 253.286 16.99C252.402 16.99 251.695 16.8297 251.167 16.509C250.647 16.197 250.387 15.7333 250.387 15.118C250.387 14.7973 250.486 14.5287 250.686 14.312C250.894 14.0953 251.162 13.9307 251.492 13.818C251.318 13.6967 251.188 13.571 251.102 13.441C251.015 13.3023 250.972 13.1203 250.972 12.895C250.972 12.6263 251.05 12.3967 251.206 12.206C251.37 12.0153 251.591 11.8637 251.869 11.751C251.522 11.595 251.249 11.3697 251.05 11.075C250.859 10.7717 250.764 10.386 250.764 9.918ZM252.155 14C251.713 14.1993 251.492 14.5113 251.492 14.936C251.492 15.6987 252.107 16.08 253.338 16.08C253.702 16.08 254.009 16.0453 254.261 15.976C254.512 15.9067 254.716 15.8157 254.872 15.703C255.028 15.5903 255.14 15.4647 255.21 15.326C255.288 15.1873 255.327 15.0443 255.327 14.897C255.327 14.533 255.201 14.2903 254.95 14.169C254.707 14.0563 254.399 14 254.027 14H252.155ZM254.534 9.944C254.534 9.48467 254.412 9.14667 254.17 8.93C253.936 8.71333 253.624 8.605 253.234 8.605C252.844 8.605 252.527 8.71333 252.285 8.93C252.051 9.14667 251.934 9.46733 251.934 9.892C251.934 10.3427 252.051 10.6763 252.285 10.893C252.527 11.101 252.844 11.205 253.234 11.205C253.624 11.205 253.936 11.101 254.17 10.893C254.412 10.685 254.534 10.3687 254.534 9.944ZM262.834 11.075H258.453V11.127C258.453 11.803 258.635 12.323 258.999 12.687C259.372 13.051 259.874 13.233 260.507 13.233C260.836 13.233 261.127 13.207 261.378 13.155C261.638 13.103 261.92 13.0163 262.223 12.895L262.457 13.74C262.206 13.8527 261.907 13.9437 261.56 14.013C261.222 14.0823 260.858 14.117 260.468 14.117C260.026 14.117 259.61 14.0563 259.22 13.935C258.839 13.8137 258.501 13.6273 258.206 13.376C257.911 13.116 257.677 12.7867 257.504 12.388C257.339 11.9893 257.257 11.5127 257.257 10.958C257.257 10.4813 257.326 10.048 257.465 9.658C257.612 9.268 257.816 8.93867 258.076 8.67C258.336 8.39267 258.648 8.18033 259.012 8.033C259.385 7.877 259.801 7.799 260.26 7.799C260.65 7.799 261.001 7.864 261.313 7.994C261.634 8.124 261.907 8.306 262.132 8.54C262.357 8.774 262.531 9.05567 262.652 9.385C262.773 9.71433 262.834 10.0783 262.834 10.477V11.075ZM261.651 10.256C261.651 10.0307 261.621 9.82267 261.56 9.632C261.508 9.43267 261.421 9.25933 261.3 9.112C261.187 8.96467 261.04 8.84767 260.858 8.761C260.676 8.67433 260.455 8.631 260.195 8.631C259.718 8.631 259.328 8.78267 259.025 9.086C258.73 9.38933 258.548 9.788 258.479 10.282L261.651 10.256ZM267.617 9.034C267.331 8.89533 267.071 8.8 266.837 8.748C266.603 8.696 266.369 8.67 266.135 8.67C265.719 8.67 265.411 8.748 265.212 8.904C265.012 9.05133 264.913 9.25067 264.913 9.502C264.913 9.684 264.982 9.84433 265.121 9.983C265.259 10.113 265.55 10.243 265.992 10.373L266.382 10.49C266.962 10.6633 267.4 10.8887 267.695 11.166C267.998 11.4347 268.15 11.803 268.15 12.271C268.15 12.8257 267.942 13.272 267.526 13.61C267.118 13.948 266.546 14.117 265.81 14.117C265.42 14.117 265.043 14.0823 264.679 14.013C264.323 13.9437 264.016 13.8483 263.756 13.727L264.029 12.83C264.28 12.9513 264.553 13.051 264.848 13.129C265.142 13.1983 265.441 13.233 265.745 13.233C266.135 13.233 266.442 13.1637 266.668 13.025C266.902 12.8863 267.019 12.6567 267.019 12.336C267.019 12.0587 266.919 11.8637 266.72 11.751C266.52 11.6297 266.234 11.5127 265.862 11.4L265.459 11.27C264.895 11.088 264.475 10.8627 264.198 10.594C263.929 10.3167 263.795 9.96133 263.795 9.528C263.795 9.268 263.851 9.02967 263.964 8.813C264.076 8.59633 264.228 8.41433 264.419 8.267C264.618 8.11967 264.852 8.007 265.121 7.929C265.389 7.84233 265.684 7.799 266.005 7.799C266.308 7.799 266.62 7.82933 266.941 7.89C267.27 7.942 267.582 8.033 267.877 8.163L267.617 9.034ZM277.561 11.075H273.18V11.127C273.18 11.803 273.362 12.323 273.726 12.687C274.098 13.051 274.601 13.233 275.234 13.233C275.563 13.233 275.853 13.207 276.105 13.155C276.365 13.103 276.646 13.0163 276.95 12.895L277.184 13.74C276.932 13.8527 276.633 13.9437 276.287 14.013C275.949 14.0823 275.585 14.117 275.195 14.117C274.753 14.117 274.337 14.0563 273.947 13.935C273.565 13.8137 273.227 13.6273 272.933 13.376C272.638 13.116 272.404 12.7867 272.231 12.388C272.066 11.9893 271.984 11.5127 271.984 10.958C271.984 10.4813 272.053 10.048 272.192 9.658C272.339 9.268 272.543 8.93867 272.803 8.67C273.063 8.39267 273.375 8.18033 273.739 8.033C274.111 7.877 274.527 7.799 274.987 7.799C275.377 7.799 275.728 7.864 276.04 7.994C276.36 8.124 276.633 8.306 276.859 8.54C277.084 8.774 277.257 9.05567 277.379 9.385C277.5 9.71433 277.561 10.0783 277.561 10.477V11.075ZM276.378 10.256C276.378 10.0307 276.347 9.82267 276.287 9.632C276.235 9.43267 276.148 9.25933 276.027 9.112C275.914 8.96467 275.767 8.84767 275.585 8.761C275.403 8.67433 275.182 8.631 274.922 8.631C274.445 8.631 274.055 8.78267 273.752 9.086C273.457 9.38933 273.275 9.788 273.206 10.282L276.378 10.256ZM282.541 7.89H283.763L281.488 14H280.37L278.069 7.89H279.304L280.682 12.089L280.916 13.051H280.968L281.189 12.102L282.541 7.89ZM289.875 11.075H285.494V11.127C285.494 11.803 285.676 12.323 286.04 12.687C286.413 13.051 286.915 13.233 287.548 13.233C287.877 13.233 288.168 13.207 288.419 13.155C288.679 13.103 288.961 13.0163 289.264 12.895L289.498 13.74C289.247 13.8527 288.948 13.9437 288.601 14.013C288.263 14.0823 287.899 14.117 287.509 14.117C287.067 14.117 286.651 14.0563 286.261 13.935C285.88 13.8137 285.542 13.6273 285.247 13.376C284.952 13.116 284.718 12.7867 284.545 12.388C284.38 11.9893 284.298 11.5127 284.298 10.958C284.298 10.4813 284.367 10.048 284.506 9.658C284.653 9.268 284.857 8.93867 285.117 8.67C285.377 8.39267 285.689 8.18033 286.053 8.033C286.426 7.877 286.842 7.799 287.301 7.799C287.691 7.799 288.042 7.864 288.354 7.994C288.675 8.124 288.948 8.306 289.173 8.54C289.398 8.774 289.572 9.05567 289.693 9.385C289.814 9.71433 289.875 10.0783 289.875 10.477V11.075ZM288.692 10.256C288.692 10.0307 288.662 9.82267 288.601 9.632C288.549 9.43267 288.462 9.25933 288.341 9.112C288.228 8.96467 288.081 8.84767 287.899 8.761C287.717 8.67433 287.496 8.631 287.236 8.631C286.759 8.631 286.369 8.78267 286.066 9.086C285.771 9.38933 285.589 9.788 285.52 10.282L288.692 10.256ZM292.37 14H291.226V7.89H292.123L292.292 8.735C292.595 8.43167 292.911 8.202 293.241 8.046C293.579 7.88133 293.964 7.799 294.398 7.799C295.022 7.799 295.511 7.97667 295.867 8.332C296.222 8.67867 296.4 9.164 296.4 9.788V14H295.256V9.957C295.256 9.58433 295.156 9.28967 294.957 9.073C294.766 8.84767 294.471 8.735 294.073 8.735C293.466 8.735 292.898 9.008 292.37 9.554V14ZM301.318 8.748H299.524V12.297C299.524 12.6003 299.597 12.804 299.745 12.908C299.901 13.012 300.1 13.064 300.343 13.064C300.516 13.064 300.707 13.0467 300.915 13.012C301.123 12.9687 301.305 12.921 301.461 12.869L301.643 13.74C301.469 13.8093 301.248 13.87 300.98 13.922C300.711 13.974 300.429 14 300.135 14C299.528 14 299.086 13.87 298.809 13.61C298.531 13.3413 298.393 12.9557 298.393 12.453V8.748H297.483V7.89H298.393V5.94H299.524V7.89H301.318V8.748ZM306.868 14H305.724V7.89H306.621L306.79 8.735C307.093 8.43167 307.41 8.202 307.739 8.046C308.077 7.88133 308.463 7.799 308.896 7.799C309.52 7.799 310.01 7.97667 310.365 8.332C310.72 8.67867 310.898 9.164 310.898 9.788V14H309.754V9.957C309.754 9.58433 309.654 9.28967 309.455 9.073C309.264 8.84767 308.97 8.735 308.571 8.735C307.964 8.735 307.397 9.008 306.868 9.554V14ZM312.67 8.436C312.878 8.332 313.073 8.241 313.255 8.163C313.437 8.07633 313.619 8.007 313.801 7.955C313.983 7.903 314.169 7.864 314.36 7.838C314.55 7.812 314.758 7.799 314.984 7.799C315.322 7.799 315.629 7.838 315.907 7.916C316.193 7.98533 316.435 8.10667 316.635 8.28C316.843 8.45333 317.003 8.683 317.116 8.969C317.228 9.24633 317.285 9.59733 317.285 10.022V14H316.336L316.193 13.324H316.167C315.898 13.61 315.603 13.8137 315.283 13.935C314.962 14.0563 314.607 14.117 314.217 14.117C313.922 14.117 313.649 14.078 313.398 14C313.155 13.9133 312.943 13.7963 312.761 13.649C312.579 13.493 312.436 13.3067 312.332 13.09C312.236 12.8733 312.189 12.6307 312.189 12.362C312.189 11.7207 312.44 11.2353 312.943 10.906C313.454 10.568 314.126 10.399 314.958 10.399H316.128V9.879C316.128 9.437 316.015 9.138 315.79 8.982C315.564 8.81733 315.261 8.735 314.88 8.735C314.654 8.735 314.394 8.774 314.1 8.852C313.814 8.92133 313.484 9.06 313.112 9.268L312.67 8.436ZM316.141 11.179L315.179 11.205C314.529 11.2223 314.065 11.3393 313.788 11.556C313.519 11.764 313.385 12.0197 313.385 12.323C313.385 12.505 313.415 12.661 313.476 12.791C313.536 12.9123 313.614 13.0077 313.71 13.077C313.814 13.1463 313.931 13.1983 314.061 13.233C314.199 13.259 314.342 13.272 314.49 13.272C314.776 13.272 315.066 13.207 315.361 13.077C315.655 12.9383 315.915 12.7217 316.141 12.427V11.179ZM320.109 14H318.965V7.89H319.849L320.018 8.735C320.304 8.449 320.612 8.22367 320.941 8.059C321.27 7.88567 321.665 7.799 322.124 7.799C322.557 7.799 322.913 7.89 323.19 8.072C323.467 8.24533 323.675 8.488 323.814 8.8C324.117 8.47933 324.451 8.23233 324.815 8.059C325.179 7.88567 325.582 7.799 326.024 7.799C326.648 7.799 327.116 7.97667 327.428 8.332C327.749 8.67867 327.909 9.164 327.909 9.788V14H326.765V9.996C326.765 9.58867 326.678 9.27667 326.505 9.06C326.332 8.84333 326.046 8.735 325.647 8.735C325.058 8.735 324.507 8.99933 323.996 9.528C324.005 9.57133 324.009 9.61467 324.009 9.658C324.009 9.70133 324.009 9.74467 324.009 9.788V14H322.865V9.996C322.865 9.58867 322.778 9.27667 322.605 9.06C322.432 8.84333 322.146 8.735 321.747 8.735C321.158 8.735 320.612 9.01233 320.109 9.567V14ZM334.88 11.075H330.499V11.127C330.499 11.803 330.681 12.323 331.045 12.687C331.418 13.051 331.92 13.233 332.553 13.233C332.882 13.233 333.173 13.207 333.424 13.155C333.684 13.103 333.966 13.0163 334.269 12.895L334.503 13.74C334.252 13.8527 333.953 13.9437 333.606 14.013C333.268 14.0823 332.904 14.117 332.514 14.117C332.072 14.117 331.656 14.0563 331.266 13.935C330.885 13.8137 330.547 13.6273 330.252 13.376C329.957 13.116 329.723 12.7867 329.55 12.388C329.385 11.9893 329.303 11.5127 329.303 10.958C329.303 10.4813 329.372 10.048 329.511 9.658C329.658 9.268 329.862 8.93867 330.122 8.67C330.382 8.39267 330.694 8.18033 331.058 8.033C331.431 7.877 331.847 7.799 332.306 7.799C332.696 7.799 333.047 7.864 333.359 7.994C333.68 8.124 333.953 8.306 334.178 8.54C334.403 8.774 334.577 9.05567 334.698 9.385C334.819 9.71433 334.88 10.0783 334.88 10.477V11.075ZM333.697 10.256C333.697 10.0307 333.667 9.82267 333.606 9.632C333.554 9.43267 333.467 9.25933 333.346 9.112C333.233 8.96467 333.086 8.84767 332.904 8.761C332.722 8.67433 332.501 8.631 332.241 8.631C331.764 8.631 331.374 8.78267 331.071 9.086C330.776 9.38933 330.594 9.788 330.525 10.282L333.697 10.256Z" fill="black"/>
<path d="M99.707 4.8335H92.107L91.3737 2.3335H86.3737C85.457 2.3335 84.707 3.0835 84.707 4.00016V14.8335C84.707 15.7502 85.457 16.5002 86.3737 16.5002H92.207L93.0404 19.0002H99.707C100.624 19.0002 101.374 18.2502 101.374 17.3335V6.50016C101.374 5.5835 100.624 4.8335 99.707 4.8335ZM89.0154 12.8252C87.1404 12.8252 85.607 11.3002 85.607 9.41683C85.607 7.5335 87.132 6.0085 89.0154 6.0085C89.882 6.0085 90.6737 6.31683 91.2987 6.90016L91.357 6.95016L90.332 7.9335L90.282 7.89183C90.0404 7.66683 89.632 7.40016 89.0154 7.40016C87.9237 7.40016 87.032 8.3085 87.032 9.41683C87.032 10.5252 87.9237 11.4335 89.0154 11.4335C90.157 11.4335 90.6487 10.7085 90.782 10.2168H88.9404V8.92516H92.232L92.2404 8.9835C92.2737 9.1585 92.282 9.31683 92.282 9.49183C92.282 11.4502 90.9404 12.8252 89.0154 12.8252ZM94.0404 11.4002C94.3154 11.9002 94.657 12.3835 95.032 12.8168L94.582 13.2585L94.0404 11.4002ZM94.682 10.7668H93.857L93.5987 9.90016H96.9237C96.9237 9.90016 96.6404 10.9918 95.6237 12.1835C95.1904 11.6668 94.882 11.1585 94.682 10.7668ZM100.54 17.3335C100.54 17.7918 100.165 18.1668 99.707 18.1668H93.8737L95.5404 16.5002L94.8654 14.1918L95.632 13.4252L97.8654 15.6668L98.4737 15.0585L96.2154 12.8252C96.9654 11.9668 97.5487 10.9502 97.8154 9.90016H98.8737V9.0335H95.8404V8.16683H94.9737V9.0335H93.3404L92.357 5.66683H99.707C100.165 5.66683 100.54 6.04183 100.54 6.50016V17.3335Z" fill="black"/>
</svg>
