<svg width="10" height="20" viewBox="0 0 10 20" fill="none" xmlns="http://www.w3.org/2000/svg">
    <path d="M1.56043 0.667601C1.75963 0.666924 1.95644 0.710886 2.13641 0.796257C2.31639 0.88163 2.47494 1.00624 2.60043 1.16093L9.04043 9.16093C9.23654 9.39951 9.34375 9.69877 9.34375 10.0076C9.34375 10.3164 9.23654 10.6157 9.04043 10.8543L2.37377 18.8543C2.14745 19.1266 1.82223 19.2978 1.46967 19.3303C1.1171 19.3628 0.766056 19.2539 0.493768 19.0276C0.221478 18.8013 0.0502462 18.4761 0.0177402 18.1235C-0.0147657 17.7709 0.0941162 17.4199 0.320434 17.1476L6.28043 10.0009L0.520434 2.85427C0.35739 2.65855 0.253821 2.42023 0.221982 2.1675C0.190143 1.91477 0.231365 1.65821 0.340773 1.42817C0.45018 1.19813 0.623194 1.00425 0.839341 0.869461C1.05549 0.734674 1.30572 0.664625 1.56043 0.667601Z"
          fill="white"/>
</svg>
