<svg width="29" height="29" viewBox="0 0 29 29" fill="none" xmlns="http://www.w3.org/2000/svg">
<path d="M0.166644 10.2808C0.238478 10.0582 0.309813 9.83565 0.382645 9.6135C0.648031 8.80515 1.12144 8.10765 1.76545 7.49085C2.19595 7.07847 2.70278 6.753 3.23306 6.46832C4.00427 6.05417 4.99947 6.2005 5.57414 6.86518C6.20319 7.59328 6.81677 8.33246 7.43634 9.06721C7.79351 9.49067 8.1467 9.91724 8.50587 10.3394C9.14589 11.0919 9.04313 12.031 8.22003 12.6381C7.70173 13.0203 7.1505 13.3666 6.61025 13.7244C6.4596 13.8242 6.29648 13.9085 6.13884 13.9998C6.72199 15.4241 7.37698 16.7672 8.3188 17.9861C9.77294 19.868 11.2665 20.9491 12.8842 21.9991C13.3272 21.6998 13.7757 21.3947 14.2261 21.0919C14.4541 20.9389 14.6796 20.7828 14.9146 20.6382C15.6099 20.2112 16.4166 20.1961 17.089 20.6431C17.3499 20.8165 17.5495 21.0701 17.75 21.3056C18.6374 22.3481 19.5109 23.3999 20.3984 24.4423C20.6508 24.739 20.7496 25.0764 20.8074 25.4316C20.7835 25.5815 20.759 25.7314 20.7351 25.8812C20.6149 26.0728 20.5291 26.2923 20.3675 26.451C19.8586 26.9516 19.2421 27.3405 18.5611 27.6318C17.308 28.1675 16.003 28.3076 14.6402 27.9946C13.1826 27.6593 11.8456 27.0927 10.5841 26.377C9.59335 25.8152 8.67797 25.1633 7.81896 24.4521C6.74145 23.5595 5.75473 22.5902 4.86379 21.5477C3.99978 20.5367 3.17619 19.5009 2.4374 18.4127C1.59634 17.1738 0.864032 15.8923 0.414571 14.4942C0.154173 13.685 -0.00246489 12.8629 2.93477e-05 12.019C0.00102704 11.7823 0.000528122 11.545 0.00102697 11.3082C0.056399 10.9659 0.111771 10.6232 0.166644 10.2808Z" fill="#61BE7A"/>
<path d="M16.8987 8.93143C17.6943 8.93143 18.3393 8.35809 18.3393 7.65083C18.3393 6.94358 17.6943 6.37024 16.8987 6.37024C16.103 6.37024 15.458 6.94358 15.458 7.65083C15.458 8.35809 16.103 8.93143 16.8987 8.93143Z" fill="#61BE7A"/>
<path d="M20.8049 8.93149C21.6006 8.93149 22.2456 8.35815 22.2456 7.6509C22.2456 6.94364 21.6006 6.3703 20.8049 6.3703C20.0093 6.3703 19.3643 6.94364 19.3643 7.6509C19.3643 8.35815 20.0093 8.93149 20.8049 8.93149Z" fill="#61BE7A"/>
<path d="M24.7112 8.93149C25.5068 8.93149 26.1518 8.35815 26.1518 7.6509C26.1518 6.94364 25.5068 6.3703 24.7112 6.3703C23.9155 6.3703 23.2705 6.94364 23.2705 7.6509C23.2705 8.35815 23.9155 8.93149 24.7112 8.93149Z" fill="#61BE7A"/>
<path d="M20.8063 0.888733C16.2888 0.888733 12.6133 3.97405 12.6133 7.76617C12.6133 9.51058 13.3925 11.1716 14.8092 12.4513L14.4845 13.0287C14.1417 13.637 14.244 14.362 14.7454 14.876L14.7693 14.9003C15.1265 15.2524 15.6373 15.4542 16.1701 15.4542C16.3975 15.4542 16.6205 15.4183 16.8325 15.3473L19.2953 14.5261C19.7907 14.6037 20.299 14.6432 20.8063 14.6432C25.3239 14.6432 28.9994 11.5579 28.9994 7.76573C28.9994 3.97405 25.3239 0.888733 20.8063 0.888733ZM15.528 13.4925L16.2479 12.2123L16.1282 12.1232C14.6361 11.012 13.7806 9.42412 13.7806 7.76573C13.7806 4.54561 16.9323 1.92545 20.8068 1.92545C24.6809 1.92545 27.8331 4.54517 27.8331 7.76573C27.8331 10.9858 24.6814 13.606 20.8068 13.606C20.2826 13.606 19.7598 13.5577 19.2529 13.4623L19.1966 13.4517L16.4235 14.3762C16.3422 14.4033 16.2574 14.417 16.1711 14.417C15.968 14.417 15.7735 14.3399 15.6368 14.206C15.4373 14.0091 15.3949 13.7288 15.528 13.4925Z" fill="#61BE7A"/>
</svg>
