<svg width="18" height="18" viewBox="0 0 18 18" fill="none" xmlns="http://www.w3.org/2000/svg">
<g clip-path="url(#clip0_29948_37067)">
<path d="M11.7631 9.35156C11.7831 9.35156 11.7999 9.35385 11.7631 9.35156V9.35156Z" fill="white"/>
<path d="M12.0414 9.4437L12.0123 9.42188L12.0414 9.4437Z" fill="white"/>
<path d="M10.6642 10.9531C10.656 10.991 10.6596 10.9742 10.6642 10.9531V10.9531Z" fill="white"/>
<path d="M13.4958 10.0607C13.6542 10.0297 13.8092 9.98366 13.9588 9.92323C14.0789 9.881 14.0002 9.6895 13.8812 9.73141C13.8008 9.75819 13.7152 9.7659 13.6312 9.75393C13.5508 9.74475 13.4714 9.72846 13.3938 9.70525C13.3479 9.69129 13.3029 9.67474 13.2589 9.6557L13.2023 9.62929L13.1903 9.62423L13.1799 9.61721C13.1394 9.59094 13.1006 9.56234 13.0635 9.53154L13.024 9.49858C13.0434 9.51924 13.0422 9.51818 13.0204 9.49538L13.024 9.49858L13.0157 9.48974L12.9887 9.46177L12.9735 9.45005L12.8734 9.35747L12.8331 9.31676L12.8295 9.31268L12.7486 9.22668C12.811 9.22553 12.8732 9.22024 12.9349 9.21086C13.0649 9.18513 13.1935 9.15266 13.3201 9.11358C13.4036 9.09135 13.368 8.95242 13.2835 8.96618C13.1659 8.98133 13.0469 8.98342 12.9288 8.9724C12.8126 8.96732 12.6967 8.95639 12.5816 8.93965C12.5223 8.93012 12.4636 8.91783 12.4054 8.90404C12.3467 8.85916 12.2844 8.81919 12.2191 8.78453L12.2238 8.7829C12.3912 8.72547 12.5539 8.65555 12.7108 8.57372C13.0367 8.39565 13.3362 8.17288 13.6004 7.91188C13.8646 7.64869 14.0915 7.35062 14.2749 7.02594C14.4515 6.70083 14.5938 6.35824 14.6996 6.00369C14.7046 5.99187 14.7072 5.97917 14.7073 5.96633C14.7074 5.95348 14.705 5.94075 14.7002 5.92884C14.6954 5.91693 14.6883 5.90609 14.6793 5.89693C14.6703 5.88777 14.6595 5.88047 14.6477 5.87546C14.6359 5.87044 14.6232 5.8678 14.6104 5.86769C14.5975 5.86758 14.5848 5.87 14.5729 5.87482C14.561 5.87963 14.5501 5.88674 14.541 5.89575C14.5318 5.90475 14.5245 5.91547 14.5195 5.9273C14.4888 6.00874 14.4535 6.08835 14.4137 6.16576C14.3285 6.32146 14.2301 6.46962 14.1197 6.60864C14.0645 6.67859 14.012 6.75073 13.9553 6.81938L13.9145 6.86795C13.9191 6.63212 13.887 6.39701 13.8194 6.17103C13.7969 6.09315 13.6669 6.12571 13.6807 6.20549C13.7009 6.31353 13.7107 6.42329 13.7098 6.53322C13.7035 6.64536 13.6877 6.75675 13.6625 6.8662C13.6449 6.97075 13.6211 7.07415 13.5912 7.17586L13.5824 7.20271L13.4147 7.34611C13.2778 7.46252 13.129 7.55555 12.9869 7.66283L12.974 7.67072L12.9164 7.70535L12.8078 7.76691C12.7318 7.80835 12.6546 7.84706 12.576 7.88303C12.4178 7.9566 12.2556 8.02151 12.0903 8.07747L12.0231 8.0993L12.0181 8.1009L11.8934 8.13706C11.8145 8.15929 11.7361 8.18348 11.6576 8.20702C11.6576 8.07718 11.6406 7.94826 11.6522 7.81886C11.6534 7.8043 11.649 7.78985 11.64 7.77839C11.6309 7.76694 11.6179 7.75934 11.6034 7.75712C11.589 7.75491 11.5743 7.75824 11.5622 7.76644C11.5501 7.77465 11.5416 7.78712 11.5383 7.80136C11.502 7.93851 11.4315 8.06198 11.3889 8.19742L11.3579 8.29746C11.2534 8.3302 11.1494 8.36439 11.0468 8.40274C10.8577 8.47221 10.6768 8.56199 10.5071 8.67049L10.5835 8.51944L10.6229 8.44363C10.5778 8.53363 10.6195 8.45039 10.6305 8.42977L10.7063 8.28982L10.7889 8.13968L10.8247 8.07555L10.8582 8.01323C10.8504 8.02807 10.9161 7.90467 10.8808 7.96957C10.8561 8.01516 10.8833 7.96503 10.8881 7.95604L10.9053 7.9233L10.9457 7.84727L11.0208 7.70619L11.1708 7.42396C11.2824 7.21296 11.3892 6.99923 11.4913 6.78275C11.6765 6.39604 11.8344 5.99681 11.9638 5.58799C12.0983 5.17186 12.1793 4.74036 12.2051 4.30381C12.2227 3.87975 12.1711 3.45564 12.0523 3.04816C12.0196 2.93069 11.8287 2.99028 11.8595 3.1072C11.8861 3.20935 11.9056 3.31323 11.9177 3.41809C11.984 4.2502 11.81 5.08382 11.4165 5.81998L11.3794 5.89383L11.3578 5.93577L11.3511 5.94861L11.3445 5.96095L11.3273 5.99296L11.2866 6.06736C11.2357 6.15927 11.1834 6.25028 11.1298 6.34038C11.0183 6.52813 10.9016 6.71232 10.7829 6.89498C10.6212 7.14381 10.4601 7.39337 10.3058 7.64726L10.3076 7.59305C10.3157 7.37558 10.3295 7.15836 10.3429 6.94118C10.3493 6.83481 10.3596 6.72836 10.3651 6.62199C10.3646 6.50729 10.3748 6.3928 10.3957 6.28003C10.4166 6.19246 10.2804 6.17373 10.2584 6.25914C10.2293 6.37192 10.1747 6.47218 10.1384 6.58212C10.1042 6.68536 10.0738 6.79086 10.0464 6.89607C9.99093 7.11424 9.9517 7.33623 9.92904 7.5602C9.90614 7.78894 9.89569 8.01876 9.89772 8.24864L9.89939 8.36432C9.75189 8.64192 9.61918 8.92713 9.50181 9.21875C9.44147 9.3705 9.38504 9.5239 9.33254 9.67895L9.32301 9.64577L9.30936 9.59735C9.30765 9.59124 9.29881 9.55733 9.30463 9.57989L9.28317 9.50022L9.27298 9.46413L9.25352 9.40432C9.2564 9.41385 9.25876 9.41524 9.25239 9.39057L9.24304 9.35452L9.22205 9.27027L9.18869 9.12555C9.1661 9.02143 9.1446 8.91692 9.12685 8.81178C9.1091 8.70767 9.09476 8.6029 9.08443 8.49761L9.07152 8.32845L9.0681 8.25609L9.06781 8.24991C9.06671 8.03646 9.08519 7.8227 9.12303 7.61262L9.13966 7.52895L9.14053 7.52488L9.18 7.38322C9.20757 7.29307 9.2397 7.20467 9.27491 7.11765C9.31013 7.03063 9.34523 6.94445 9.38459 6.85976L9.45037 6.72425C9.45579 6.71334 9.48878 6.65102 9.46539 6.69435C9.43167 6.7567 9.49617 6.6357 9.49493 6.63821L9.50879 6.60911L9.57624 6.47473L9.59079 6.44693C9.57653 6.47447 9.60593 6.41878 9.61091 6.4095C9.66373 6.31128 9.7143 6.21236 9.76428 6.11265C9.93283 5.77636 10.105 5.44295 10.2449 5.09153C10.2545 5.06891 10.2556 5.04358 10.248 5.02021C10.2404 4.99684 10.2246 4.97701 10.2036 4.96437C10.1825 4.95173 10.1576 4.94713 10.1334 4.95143C10.1092 4.95572 10.0873 4.96862 10.0719 4.98774C9.81361 5.344 9.50137 5.64801 9.22929 5.99114C9.05038 6.2138 8.8945 6.45403 8.76404 6.70813C8.75204 6.60661 8.741 6.50503 8.73094 6.40339C8.71297 6.22149 8.70184 6.03938 8.69289 5.85672C8.68325 5.66027 8.67783 5.52749 8.68168 5.33112C8.68532 5.14846 8.69623 4.96595 8.71639 4.78449C8.73167 4.60096 8.7584 4.41856 8.79642 4.23837C8.82523 4.11755 8.66964 4.04228 8.62242 4.1647C8.54465 4.35404 8.47693 4.54736 8.41957 4.74385C8.36406 4.95063 8.3188 5.16079 8.2834 5.37252C8.21809 5.78324 8.18724 6.1987 8.19118 6.61457C8.2134 7.39985 8.28184 8.18315 8.39614 8.96039C8.4398 9.32724 8.48534 9.69335 8.51296 10.0621C8.40696 9.851 8.28003 9.65112 8.13407 9.46544C7.96673 9.25233 7.78483 9.05472 7.616 8.84412C7.67648 8.75283 7.72466 8.65396 7.75929 8.55007C7.81329 8.37263 7.84267 8.18862 7.8466 8.00319C7.84903 7.98273 7.8434 7.96214 7.83092 7.94575C7.81844 7.92937 7.80008 7.91847 7.77971 7.91537C7.75935 7.91228 7.73858 7.91722 7.72179 7.92915C7.705 7.94108 7.69351 7.95907 7.68974 7.97932C7.64393 8.12926 7.57232 8.27006 7.47812 8.39539C7.44802 8.43911 7.4157 8.48125 7.38128 8.52166C7.34323 8.46105 7.30787 8.39863 7.26938 8.33838L7.25941 8.31958L7.22361 8.24998L7.16541 8.12888C7.08785 7.95833 7.02064 7.78326 6.96416 7.60462L6.92178 7.46427L6.9149 7.43935L6.90162 7.38817C6.87845 7.29591 6.8576 7.20289 6.83778 7.10976C6.79767 6.9201 6.76719 6.72854 6.74643 6.53581C6.70263 6.11288 6.69102 5.68723 6.71172 5.26254C6.72933 4.81643 6.75589 4.3709 6.79882 3.92667C6.80112 3.9135 6.80071 3.9 6.79761 3.88699C6.79451 3.87399 6.78878 3.86175 6.78079 3.85104C6.7728 3.84032 6.7627 3.83135 6.75112 3.82467C6.73953 3.81799 6.72671 3.81375 6.71343 3.8122C6.70015 3.81065 6.68669 3.81183 6.67388 3.81567C6.66107 3.81951 6.64918 3.82591 6.63894 3.83451C6.6287 3.8431 6.62031 3.85369 6.61431 3.86564C6.6083 3.87758 6.6048 3.89062 6.60401 3.90397C6.51186 4.39054 6.40319 4.87351 6.33728 5.36531C6.26841 5.85149 6.24235 6.34277 6.25939 6.8335C6.2763 7.60166 6.49 8.35264 6.88005 9.01463C6.53665 8.90765 6.18767 8.81945 5.83466 8.75045C5.72418 8.72597 5.61377 8.70097 5.50383 8.67362L5.41452 8.65081L5.3454 8.63229L5.33547 8.62956L5.25711 8.60704C5.04591 8.54673 4.84171 8.46416 4.64795 8.36072L4.61608 8.34286L4.55762 8.30604C4.51305 8.27654 4.46871 8.24649 4.42567 8.21448C4.34312 8.15183 4.26482 8.08378 4.19128 8.01076L4.16753 7.98445L4.12045 7.934C4.08497 7.89536 4.05079 7.85544 4.0179 7.81424C3.9503 7.72967 3.88851 7.64061 3.83295 7.54769L3.80821 7.50523C3.79308 7.47951 3.81603 7.52008 3.81687 7.5208C3.80105 7.49905 3.78854 7.47507 3.77976 7.44965L3.70821 7.30631C3.66268 7.21076 3.62348 7.11233 3.59085 7.01164C3.51771 6.81517 3.48491 6.60598 3.49441 6.39655C3.49633 6.38341 3.4956 6.37003 3.49226 6.35718C3.48891 6.34434 3.48302 6.33229 3.47494 6.32176C3.46686 6.31124 3.45675 6.30244 3.4452 6.29589C3.43366 6.28934 3.42092 6.28517 3.40773 6.28363C3.39455 6.2821 3.38119 6.28322 3.36845 6.28694C3.35571 6.29066 3.34384 6.2969 3.33355 6.30529C3.32327 6.31368 3.31477 6.32405 3.30856 6.33578C3.30235 6.34751 3.29856 6.36037 3.29741 6.37359C3.28334 6.50052 3.25471 6.62461 3.24427 6.7523C3.23361 6.88763 3.23352 7.02359 3.24401 7.15894C3.26364 7.42073 3.32703 7.67738 3.43154 7.91821C3.45756 7.9782 3.48549 8.0376 3.51707 8.09443L3.52362 8.10632C3.54122 8.13239 3.55642 8.16001 3.56902 8.18883L3.60904 8.25795C3.66503 8.35085 3.72983 8.43815 3.80254 8.51864C3.88989 8.61784 3.98454 8.71038 4.08567 8.79549C4.19222 8.87934 4.30537 8.95447 4.424 9.02013C4.47406 9.04923 4.6092 9.11176 4.78655 9.19012C4.68214 9.2503 4.58634 9.32431 4.50174 9.41014C4.45465 9.45866 4.41275 9.51195 4.37671 9.56916L4.31919 9.66651C4.30253 9.69925 4.29638 9.73606 4.27888 9.76819C4.25313 9.81548 4.32508 9.85353 4.35739 9.81479C4.38054 9.79273 4.40572 9.7729 4.43258 9.75556L4.50418 9.69881C4.55649 9.66036 4.61204 9.62533 4.66788 9.59204C4.77248 9.5299 4.88403 9.48032 5.00024 9.4443L5.09075 9.41884L5.10312 9.41549L5.10923 9.41407L5.15471 9.40451L5.24809 9.38995C5.6989 9.58276 6.19187 9.78765 6.34586 9.85149L6.36522 9.85877L6.35947 9.85728L6.39472 9.87183L6.5056 9.92018L6.61525 9.97369C6.62445 9.97864 6.70729 10.0193 6.65526 9.99552C6.60433 9.97209 6.66749 10.0034 6.67484 10.0081C6.79809 10.0863 6.91494 10.1754 7.03426 10.2598C7.12372 10.3231 7.21252 10.3875 7.29961 10.4546C7.33675 10.5079 7.37269 10.5621 7.40624 10.6183L7.4317 10.6616L7.44585 10.6874L7.45939 10.7154L7.52949 10.8664C7.56827 10.956 7.60352 11.0474 7.63371 11.1406L7.67464 11.2763L7.6789 11.2928L7.69599 11.3638C7.74896 11.5947 7.78879 11.8284 7.81532 12.0638C7.82325 12.1337 7.82987 12.2036 7.83522 12.2737C7.82884 12.4045 7.81778 12.5349 7.80204 12.6649C7.78892 12.7735 7.77273 12.8816 7.75347 12.9892L7.71873 13.1618L7.71145 13.194L7.69588 13.2575C7.58777 13.6886 6.94717 15.1524 6.92101 15.2005L6.84018 15.3561C6.80487 15.435 6.77506 15.5173 6.75196 15.6006L6.72213 15.7465C6.71354 15.7871 6.78426 16.5907 8.70478 16.5907C10.6253 16.5907 10.9645 15.8978 10.9632 15.8299C10.9555 15.7362 10.9358 15.6439 10.9046 15.5552L10.8812 15.4711C10.8987 15.5452 10.8739 15.4431 10.8703 15.4287C10.8389 15.3081 10.8096 15.1868 10.7822 15.0649C10.7257 14.8134 10.6778 14.5599 10.6384 14.3044C10.5627 13.7974 10.5157 13.2866 10.4978 12.7744C10.4973 12.7527 10.4973 12.7577 10.4978 12.7895L10.4963 12.7119L10.4944 12.662L10.4917 12.5624C10.4932 12.6192 10.4914 12.5454 10.4912 12.526L10.4903 12.4381C10.4896 12.3085 10.491 12.1789 10.4946 12.0494L10.5035 11.8093C10.5321 11.6246 10.5643 11.4405 10.6001 11.2572C10.6188 11.1619 10.6385 11.0668 10.6599 10.9721L10.6704 10.9259L10.7027 10.8008C10.7474 10.6296 10.8018 10.4611 10.8658 10.2961C10.9 10.2088 10.9375 10.1231 10.9785 10.0394L10.9992 9.99908L11.0683 9.88089C11.1106 9.81331 11.1572 9.74854 11.2079 9.68699L11.2409 9.64806L11.3117 9.57938C11.3469 9.54722 11.3838 9.51686 11.4221 9.48843L11.452 9.46697C11.4841 9.45294 11.5149 9.43608 11.5439 9.41658L11.6413 9.37453L11.6882 9.36391L11.744 9.35543L11.7631 9.3547L11.7351 9.35281L11.8303 9.35856L11.8778 9.36667C11.9124 9.37842 11.9464 9.39193 11.9797 9.40712L12.0129 9.42411L12.0291 9.43255C12.0447 9.44052 12.0547 9.453 12.0404 9.44434C12.0849 9.47552 12.1332 9.50255 12.1765 9.53481C12.2961 9.62383 12.4083 9.72315 12.5303 9.80853L12.6272 9.87263C12.6527 9.88849 12.7538 9.94655 12.6765 9.90282C12.7042 9.92041 12.7332 9.93582 12.7632 9.94892C12.8423 9.9806 12.9235 10.0066 13.0063 10.0266C13.1658 10.069 13.332 10.0805 13.4958 10.0607Z" fill="white"/>
<path d="M6.33362 9.84766L6.35908 9.85493L6.34453 9.85129L6.33362 9.84766Z" fill="white"/>
<path d="M3.52364 8.10494C3.49606 8.07354 3.56617 8.18301 3.52364 8.10494V8.10494Z" fill="white"/>
<path d="M11.4115 1.97266C11.4115 1.97266 10.7233 2.34696 10.5769 2.76288C10.5391 2.82821 10.5171 2.90144 10.5125 2.97676C10.5079 3.05208 10.5209 3.12744 10.5504 3.19688C10.58 3.26632 10.6253 3.32793 10.6827 3.37686C10.7402 3.42579 10.8082 3.46068 10.8815 3.47878C11.1549 3.57504 11.4209 3.52731 11.5673 3.11135C11.623 2.72469 11.569 2.33016 11.4115 1.97266Z" fill="white"/>
<path d="M12.5639 3.55308C12.5159 3.61135 12.4822 3.67997 12.4653 3.75353C12.4484 3.82708 12.4489 3.90355 12.4667 3.97688C12.4845 4.05022 12.5191 4.11842 12.5677 4.17609C12.6164 4.23377 12.6778 4.27933 12.7471 4.30918C12.8094 4.35172 12.8808 4.37919 12.9556 4.38941C13.0303 4.39962 13.1064 4.39231 13.1779 4.36805C13.2494 4.34379 13.3142 4.30324 13.3673 4.24961C13.4204 4.19598 13.4602 4.13074 13.4838 4.05904C13.602 3.6867 13.6134 3.28863 13.5165 2.91016C13.145 3.03105 12.815 3.25381 12.5639 3.55308Z" fill="white"/>
<path d="M12.7068 6.34656C12.9967 6.34336 13.2302 6.20749 13.2253 5.76661C13.1453 5.38421 12.9594 5.03197 12.689 4.75C12.4249 5.03789 12.247 5.39415 12.1754 5.77821C12.1804 6.21909 12.4169 6.34958 12.7068 6.34656Z" fill="white"/>
<path d="M11.7435 7.22985C11.8182 7.50997 12.0075 7.70277 12.4335 7.58924C12.8596 7.4757 13.2864 6.81873 13.2864 6.81873C12.9422 6.63385 12.5531 6.54931 12.1632 6.57474C11.7372 6.68827 11.6689 6.94969 11.7435 7.22985Z" fill="white"/>
<path d="M10.8659 3.91016C10.6583 4.2411 10.5477 4.62369 10.5469 5.01437C10.6315 5.44709 10.8877 5.5328 11.1722 5.47718C11.4567 5.42156 11.6619 5.24563 11.5772 4.81294C11.4926 4.38025 10.8659 3.91016 10.8659 3.91016Z" fill="white"/>
<path d="M3.03629 3.91016C2.82867 4.2411 2.71814 4.62369 2.71729 5.01437C2.80187 5.44709 3.05812 5.5328 3.34264 5.47718C3.62716 5.42156 3.83226 5.24563 3.74765 4.81294C3.66303 4.38025 3.03629 3.91016 3.03629 3.91016Z" fill="white"/>
<path d="M4.58824 4.32583C4.65636 4.29336 4.71599 4.2455 4.76243 4.18602C4.80887 4.12655 4.84084 4.05708 4.85582 3.98312C4.87079 3.90916 4.86836 3.83274 4.84872 3.75988C4.82907 3.68702 4.79276 3.61973 4.74263 3.56332C4.48033 3.27379 4.14201 3.06372 3.76618 2.95703C3.68378 3.33891 3.71025 3.73626 3.84258 4.10384C3.86882 4.17459 3.91116 4.23827 3.96625 4.28984C4.02134 4.34141 4.08766 4.37947 4.15999 4.401C4.23231 4.42253 4.30865 4.42695 4.38297 4.4139C4.4573 4.40085 4.52757 4.3707 4.58824 4.32583Z" fill="white"/>
<path d="M14.8741 5.52012C14.9364 5.56266 15.0078 5.59013 15.0826 5.60034C15.1573 5.61056 15.2335 5.60325 15.3049 5.57899C15.3764 5.55472 15.4412 5.51418 15.4943 5.46055C15.5474 5.40692 15.5873 5.34167 15.6108 5.26998C15.729 4.89763 15.7404 4.49957 15.6435 4.12109C15.272 4.24197 14.9419 4.46474 14.6908 4.76402C14.6429 4.82229 14.6091 4.89092 14.5923 4.96448C14.5754 5.03803 14.5759 5.1145 14.5937 5.18784C14.6114 5.26118 14.646 5.32938 14.6947 5.38705C14.7434 5.44472 14.8048 5.49027 14.8741 5.52012Z" fill="white"/>
<path d="M15.5671 7.10098C15.9542 7.0484 16.3188 6.8882 16.6193 6.6386C16.351 6.35462 16.0083 6.15168 15.6303 6.0529C15.1901 6.02634 15.043 6.25298 15.0256 6.5423C15.0081 6.83163 15.127 7.07442 15.5671 7.10098Z" fill="white"/>
<path d="M15.8835 7.54509C15.4433 7.51853 15.2962 7.74517 15.2787 8.03449C15.2613 8.32381 15.3802 8.5665 15.8203 8.59305C16.2074 8.54048 16.572 8.38028 16.8725 8.13068C16.6042 7.84673 16.2615 7.64384 15.8835 7.54509Z" fill="white"/>
<path d="M15.7127 8.79561C15.6497 8.75398 15.578 8.72755 15.5031 8.71842C15.4282 8.70929 15.3522 8.7177 15.2811 8.743C15.21 8.7683 15.1458 8.80978 15.0934 8.86417C15.0411 8.91857 15.0022 8.98438 14.9797 9.05641C14.8672 9.32358 14.8987 9.59191 15.3051 9.76311C15.6876 9.84203 16.0847 9.81197 16.451 9.67634C16.451 9.67634 16.119 8.96677 15.7127 8.79561Z" fill="white"/>
<path d="M13.1691 10.3919C13.1014 10.4251 13.0423 10.4737 12.9966 10.5337C12.9509 10.5938 12.9197 10.6636 12.9057 10.7377C12.8916 10.8119 12.8949 10.8883 12.9154 10.9609C12.9359 11.0335 12.973 11.1003 13.0238 11.1562C13.2895 11.4425 13.6303 11.6486 14.0074 11.7508C14.0853 11.3679 14.0541 10.9708 13.9174 10.6048C13.8903 10.5344 13.8471 10.4713 13.7914 10.4204C13.7357 10.3695 13.669 10.3322 13.5964 10.3116C13.5238 10.2909 13.4474 10.2874 13.3733 10.3013C13.2991 10.3153 13.2292 10.3463 13.1691 10.3919Z" fill="white"/>
<path d="M11.1433 11.2815C11.0711 11.3036 11.0051 11.3422 10.9504 11.3942C10.8958 11.4462 10.8539 11.5102 10.8282 11.5812C10.8026 11.6521 10.7937 11.7281 10.8025 11.803C10.8112 11.878 10.8372 11.9499 10.8785 12.013C11.0475 12.4203 11.7552 12.7562 11.7552 12.7562C11.8929 12.3906 11.9251 11.9937 11.8482 11.6107C11.6792 11.2034 11.4111 11.1704 11.1433 11.2815Z" fill="white"/>
<path d="M7.24825 11.8567C7.07927 11.4495 6.81108 11.4165 6.54334 11.5275C6.47118 11.5496 6.40515 11.5882 6.35047 11.6402C6.29579 11.6922 6.25396 11.7563 6.22827 11.8272C6.20259 11.8982 6.19376 11.9741 6.20248 12.0491C6.2112 12.1241 6.23724 12.196 6.27853 12.2591C6.44751 12.6663 7.15527 13.0023 7.15527 13.0023C7.29291 12.6367 7.32513 12.2397 7.24825 11.8567Z" fill="white"/>
<path d="M11.6268 9.87809C11.5588 9.91089 11.4994 9.95905 11.4533 10.0188C11.4071 10.0785 11.3755 10.1481 11.3609 10.2221C11.3463 10.2962 11.3491 10.3726 11.3691 10.4453C11.3891 10.5181 11.4257 10.5852 11.4761 10.6414C11.7399 10.9296 12.0792 11.138 12.4556 11.2428C12.5361 10.8605 12.5076 10.4633 12.3735 10.0964C12.3469 10.0258 12.3043 9.96231 12.2489 9.91101C12.1936 9.8597 12.1271 9.82198 12.0546 9.8008C11.9822 9.77963 11.9058 9.77559 11.8316 9.789C11.7573 9.80241 11.6872 9.83291 11.6268 9.87809Z" fill="white"/>
<path d="M5.39057 6.74609C5.15875 7.06055 5.01987 7.43377 4.98975 7.82327C5.0417 8.26109 5.29078 8.36579 5.57868 8.33163C5.86659 8.29747 6.08435 8.13744 6.03233 7.69959C5.9119 7.32794 5.68954 6.99757 5.39057 6.74609Z" fill="white"/>
<path d="M14.5344 8.86345C14.7318 8.52631 14.8306 8.14052 14.8195 7.75C14.4305 7.78608 14.0594 7.93066 13.7486 8.16727C13.6953 8.21747 13.653 8.27823 13.6245 8.34567C13.596 8.41311 13.5818 8.48575 13.5829 8.55896C13.5841 8.63217 13.6004 8.70435 13.631 8.77089C13.6615 8.83742 13.7056 8.89687 13.7604 8.94542C13.8152 8.99398 13.8796 9.03058 13.9493 9.0529C14.019 9.07522 14.0926 9.08276 14.1655 9.07505C14.2383 9.06734 14.3087 9.04454 14.3722 9.00811C14.4357 8.97168 14.491 8.92241 14.5344 8.86345Z" fill="white"/>
<path d="M15.0472 9.90134C14.9879 9.85833 14.9204 9.82813 14.8488 9.81267C14.7773 9.79721 14.7033 9.79682 14.6316 9.81154C14.5599 9.82625 14.492 9.85574 14.4323 9.89813C14.3726 9.94051 14.3224 9.99487 14.2849 10.0577C14.2474 10.1206 14.2234 10.1906 14.2144 10.2632C14.2055 10.3359 14.2117 10.4096 14.2328 10.4797C14.2539 10.5498 14.2894 10.6147 14.3369 10.6704C14.3845 10.726 14.4431 10.7711 14.5091 10.8028C14.8771 10.9342 15.2745 10.9596 15.6561 10.8761C15.5484 10.5006 15.3374 10.1628 15.0472 9.90134Z" fill="white"/>
<path d="M1.82737 6.15822C1.87292 6.21838 1.93184 6.26712 1.99947 6.30059C2.06709 6.33407 2.14158 6.35136 2.21704 6.35109C2.2925 6.35083 2.36686 6.33302 2.43425 6.29907C2.50164 6.26512 2.56021 6.21597 2.60534 6.15549C2.66119 6.10474 2.70447 6.0417 2.73176 5.97134C2.75905 5.90099 2.76961 5.82525 2.76259 5.75012C2.75558 5.67499 2.73118 5.60251 2.69134 5.53843C2.6515 5.47434 2.59729 5.4204 2.53302 5.38087C2.19829 5.17939 1.81373 5.07595 1.4231 5.08231C1.45447 5.47172 1.59454 5.8445 1.82737 6.15822Z" fill="white"/>
<path d="M2.46237 7.87352C2.86982 7.70541 2.90361 7.43734 2.79309 7.16933C2.77115 7.09714 2.73271 7.03103 2.68083 6.97624C2.62894 6.92145 2.56502 6.87948 2.49412 6.85364C2.42322 6.8278 2.34729 6.8188 2.27232 6.82736C2.19734 6.83591 2.12538 6.86178 2.06213 6.90293C1.65469 7.07104 1.31702 7.77803 1.31702 7.77803C1.68233 7.91646 2.07918 7.94955 2.46237 7.87352Z" fill="white"/>
<path d="M3.03894 8.66545C3.017 8.59324 2.97857 8.52713 2.92669 8.47234C2.8748 8.41755 2.81088 8.37557 2.73998 8.34973C2.66908 8.32389 2.59314 8.31489 2.51817 8.32345C2.44319 8.33201 2.37123 8.35789 2.30798 8.39905C1.90054 8.56715 1.56287 9.27414 1.56287 9.27414C1.92819 9.4126 2.32505 9.4457 2.70826 9.36967C3.11585 9.20153 3.14946 8.93345 3.03894 8.66545Z" fill="white"/>
<path d="M3.65383 9.53057C3.60916 9.46975 3.55096 9.42016 3.48382 9.38571C3.41669 9.35126 3.34246 9.33289 3.267 9.33206C3.19155 9.33123 3.11694 9.34796 3.04906 9.38093C2.98118 9.4139 2.9219 9.4622 2.87591 9.52202C2.64075 9.83397 2.4979 10.2057 2.46362 10.5948C2.85419 10.6041 3.23951 10.5035 3.57573 10.3046C3.64029 10.2655 3.69488 10.212 3.7352 10.1482C3.77551 10.0844 3.80044 10.0121 3.80802 9.93707C3.81559 9.862 3.80561 9.78619 3.77885 9.71564C3.75209 9.64509 3.70929 9.58173 3.65383 9.53057Z" fill="white"/>
<path d="M5.79968 10.2071C5.51687 10.1432 5.25828 10.2216 5.16126 10.6516C5.15086 11.0422 5.25032 11.4278 5.44833 11.7646C5.44833 11.7646 6.08838 11.3128 6.1854 10.8827C6.28243 10.4526 6.08252 10.2709 5.79968 10.2071Z" fill="white"/>
<path d="M4.63595 10.2523C4.58327 10.1983 4.51874 10.1573 4.44747 10.1325C4.3762 10.1077 4.30014 10.0998 4.2253 10.1095C4.15046 10.1191 4.07889 10.1461 4.01625 10.1881C3.9536 10.2302 3.90161 10.2863 3.86436 10.3519C3.67484 10.6935 3.58505 11.0815 3.60519 11.4716C3.99327 11.4265 4.36089 11.2734 4.66622 11.0297C4.72473 10.9821 4.77136 10.9215 4.80242 10.8527C4.83348 10.7839 4.84812 10.7089 4.84519 10.6335C4.84225 10.5581 4.82182 10.4844 4.7855 10.4182C4.74919 10.3521 4.69799 10.2953 4.63595 10.2523Z" fill="white"/>
<path d="M13.5119 5.41074C13.5743 5.45329 13.6456 5.48075 13.7204 5.49097C13.7951 5.50119 13.8713 5.49387 13.9427 5.46961C14.0142 5.44535 14.079 5.4048 14.1321 5.35117C14.1852 5.29754 14.2251 5.2323 14.2486 5.1606C14.3669 4.78826 14.3782 4.39019 14.2813 4.01172C13.9098 4.1326 13.5797 4.35536 13.3286 4.65464C13.2807 4.71292 13.2469 4.78155 13.2301 4.8551C13.2132 4.92866 13.2137 5.00513 13.2315 5.07847C13.2493 5.15181 13.2838 5.22 13.3325 5.27767C13.3812 5.33534 13.4426 5.3809 13.5119 5.41074Z" fill="white"/>
<path d="M10.2327 2.79863C10.1064 2.42894 9.87882 2.10216 9.57588 1.85547C9.34909 2.17358 9.21617 2.54897 9.19226 2.93891C9.25116 3.37585 9.50188 3.47655 9.7892 3.43781C10.0765 3.39906 10.2915 3.23561 10.2327 2.79863Z" fill="white"/>
<path d="M8.49725 3.17999C8.78464 3.14125 8.99968 2.97776 8.94074 2.54082C8.81441 2.17113 8.58682 1.84435 8.28389 1.59766C8.0571 1.91576 7.92418 2.29115 7.90027 2.68109C7.9592 3.11804 8.20993 3.21874 8.49725 3.17999Z" fill="white"/>
<path d="M5.96481 5.01085C5.69745 4.72599 5.35549 4.52192 4.97785 4.42188C4.90219 4.80515 4.93567 5.20197 5.07447 5.56716C5.10196 5.63743 5.14541 5.70034 5.2014 5.75093C5.25738 5.80152 5.32436 5.83839 5.39705 5.85865C5.46973 5.8789 5.54613 5.88197 5.62021 5.86763C5.69429 5.85328 5.76401 5.8219 5.82388 5.77597C5.89141 5.74231 5.95019 5.6934 5.99558 5.63311C6.04096 5.57282 6.0717 5.50281 6.08537 5.4286C6.09904 5.35439 6.09526 5.27801 6.07434 5.20551C6.05341 5.13301 6.01592 5.06637 5.96481 5.01085Z" fill="white"/>
<path d="M8.07896 3.63281C7.70273 3.73822 7.36366 3.94716 7.10036 4.23583C7.05006 4.29207 7.01352 4.35924 6.99364 4.43203C6.97376 4.50482 6.97107 4.58124 6.9858 4.65524C7.00053 4.72925 7.03226 4.79882 7.0785 4.85845C7.12474 4.91808 7.18421 4.96614 7.25221 4.99884C7.31272 5.04393 7.38289 5.07432 7.45717 5.08762C7.53145 5.10092 7.60781 5.09676 7.6802 5.07547C7.7526 5.05418 7.81905 5.01635 7.87431 4.96496C7.92957 4.91357 7.97212 4.85003 7.9986 4.77937C8.13221 4.41224 8.16005 4.01498 8.07896 3.63281Z" fill="white"/>
<path d="M4.37595 7.14408C4.66454 7.1717 4.91119 7.06136 4.95317 6.62248C4.91421 6.23376 4.76689 5.86379 4.52798 5.55469C4.23483 5.81286 4.02005 6.14814 3.90808 6.52237C3.8661 6.96143 4.08736 7.11647 4.37595 7.14408Z" fill="white"/>
<path d="M9.41977 5.12638C9.70091 5.19724 9.96134 5.12543 10.0691 4.69787C10.0893 4.30772 9.99948 3.91975 9.80997 3.57812C9.80997 3.57812 9.15879 4.01376 9.05107 4.44132C8.94335 4.86889 9.13863 5.05551 9.41977 5.12638Z" fill="white"/>
<path d="M7.36765 5.44531C7.1376 5.76107 7.00083 6.13507 6.9729 6.52475C7.02747 6.96228 7.27699 7.06556 7.56468 7.0298C7.85236 6.99404 8.06914 6.83277 8.01476 6.3952C7.89225 6.02423 7.66803 5.69511 7.36765 5.44531Z" fill="white"/>
<path d="M7.05458 3.43784C7.34198 3.3991 7.55701 3.23561 7.49808 2.79867C7.37177 2.42897 7.14419 2.10217 6.84126 1.85547C6.61447 2.17358 6.48155 2.54897 6.45764 2.93891C6.51658 3.37589 6.7673 3.47659 7.05458 3.43784Z" fill="white"/>
<path d="M6.25096 3.39402C6.00641 3.08932 5.68122 2.85941 5.31242 2.73047C5.20738 3.10676 5.2101 3.50497 5.32028 3.87979C5.34224 3.952 5.38071 4.01812 5.43263 4.0729C5.48455 4.12769 5.5485 4.16965 5.61943 4.19546C5.69036 4.22127 5.76632 4.23022 5.84131 4.22162C5.9163 4.21301 5.98826 4.18707 6.05149 4.14586C6.1214 4.1175 6.18376 4.07328 6.23364 4.01668C6.28352 3.96008 6.31955 3.89265 6.3389 3.81973C6.35825 3.74681 6.36037 3.67039 6.34511 3.59651C6.32985 3.52263 6.29762 3.45331 6.25096 3.39402Z" fill="white"/>
</g>
<defs>
<clipPath id="clip0_29948_37067">
<rect width="18" height="18" fill="white"/>
</clipPath>
</defs>
</svg>
