<svg width="39" height="44" viewBox="0 0 39 44" fill="none" xmlns="http://www.w3.org/2000/svg">
<path opacity="0.4" d="M3.76099 41.5352L5.65476 37.3499H6.29591L8.21344 41.5352H7.43574L6.92519 40.3597L7.2339 40.5675H4.72272L5.04329 40.3597L4.53274 41.5352H3.76099ZM5.9694 38.1691L5.13234 40.1519L4.97799 39.9679H6.97269L6.84802 40.1519L5.99315 38.1691H5.9694ZM9.75171 41.5945C9.4905 41.5945 9.25897 41.5332 9.05713 41.4105C8.85924 41.2838 8.70489 41.1038 8.59407 40.8703C8.48326 40.6368 8.42785 40.3577 8.42785 40.0332C8.42785 39.7087 8.48326 39.4316 8.59407 39.2021C8.70489 38.9686 8.85924 38.7905 9.05713 38.6678C9.25897 38.5411 9.4905 38.4778 9.75171 38.4778C10.001 38.4778 10.2207 38.5392 10.4107 38.6618C10.6046 38.7806 10.7332 38.9428 10.7966 39.1486H10.7194V37.1658H11.4615V41.5352H10.7312V40.8999H10.8025C10.7392 41.1137 10.6105 41.2838 10.4166 41.4105C10.2266 41.5332 10.005 41.5945 9.75171 41.5945ZM9.95949 41.0246C10.193 41.0246 10.381 40.9435 10.5235 40.7812C10.6659 40.615 10.7372 40.3656 10.7372 40.0332C10.7372 39.7007 10.6659 39.4534 10.5235 39.2911C10.381 39.1289 10.193 39.0477 9.95949 39.0477C9.72599 39.0477 9.53601 39.1289 9.38958 39.2911C9.2471 39.4534 9.17586 39.7007 9.17586 40.0332C9.17586 40.3656 9.2471 40.615 9.38958 40.7812C9.53601 40.9435 9.72599 41.0246 9.95949 41.0246ZM13.4331 41.5945C13.1719 41.5945 12.9404 41.5332 12.7385 41.4105C12.5406 41.2838 12.3863 41.1038 12.2755 40.8703C12.1646 40.6368 12.1092 40.3577 12.1092 40.0332C12.1092 39.7087 12.1646 39.4316 12.2755 39.2021C12.3863 38.9686 12.5406 38.7905 12.7385 38.6678C12.9404 38.5411 13.1719 38.4778 13.4331 38.4778C13.6824 38.4778 13.9021 38.5392 14.0921 38.6618C14.286 38.7806 14.4146 38.9428 14.4779 39.1486H14.4008V37.1658H15.1428V41.5352H14.4126V40.8999H14.4839C14.4206 41.1137 14.2919 41.2838 14.098 41.4105C13.908 41.5332 13.6864 41.5945 13.4331 41.5945ZM13.6409 41.0246C13.8744 41.0246 14.0624 40.9435 14.2049 40.7812C14.3473 40.615 14.4186 40.3656 14.4186 40.0332C14.4186 39.7007 14.3473 39.4534 14.2049 39.2911C14.0624 39.1289 13.8744 39.0477 13.6409 39.0477C13.4074 39.0477 13.2174 39.1289 13.071 39.2911C12.9285 39.4534 12.8572 39.7007 12.8572 40.0332C12.8572 40.3656 12.9285 40.615 13.071 40.7812C13.2174 40.9435 13.4074 41.0246 13.6409 41.0246ZM17.6394 41.5352V37.3499H18.4052V41.5352H17.6394ZM19.2671 41.5352V39.2852C19.2671 39.1625 19.2631 39.0378 19.2552 38.9112C19.2473 38.7845 19.2354 38.6599 19.2196 38.5372H19.9379L19.9973 39.1308H19.926C20.0091 38.925 20.1358 38.7647 20.306 38.65C20.4801 38.5352 20.6859 38.4778 20.9234 38.4778C21.1608 38.4778 21.3567 38.5352 21.5111 38.65C21.6694 38.7608 21.7802 38.9349 21.8435 39.1724H21.7486C21.8317 38.9587 21.9682 38.7905 22.1582 38.6678C22.3482 38.5411 22.5658 38.4778 22.8112 38.4778C23.1476 38.4778 23.3989 38.5768 23.5652 38.7746C23.7314 38.9725 23.8145 39.2812 23.8145 39.7007V41.5352H23.0724V39.7304C23.0724 39.493 23.0328 39.3228 22.9537 39.2199C22.8745 39.113 22.7479 39.0596 22.5737 39.0596C22.3679 39.0596 22.2057 39.1328 22.0869 39.2792C21.9682 39.4217 21.9088 39.6157 21.9088 39.861V41.5352H21.1668V39.7304C21.1668 39.493 21.1272 39.3228 21.048 39.2199C20.9689 39.113 20.8422 39.0596 20.6681 39.0596C20.4623 39.0596 20.3 39.1328 20.1813 39.2792C20.0665 39.4217 20.0091 39.6157 20.0091 39.861V41.5352H19.2671ZM25.7642 41.5945C25.5029 41.5945 25.2734 41.5332 25.0755 41.4105C24.8776 41.2838 24.7233 41.1038 24.6125 40.8703C24.5016 40.6368 24.4462 40.3577 24.4462 40.0332C24.4462 39.7087 24.5016 39.4316 24.6125 39.2021C24.7233 38.9686 24.8776 38.7905 25.0755 38.6678C25.2734 38.5411 25.5029 38.4778 25.7642 38.4778C26.0175 38.4778 26.2391 38.5411 26.4291 38.6678C26.623 38.7905 26.7516 38.9567 26.8149 39.1665H26.7496L26.8149 38.5372H27.5273C27.5155 38.6599 27.5036 38.7845 27.4917 38.9112C27.4838 39.0378 27.4798 39.1625 27.4798 39.2852V41.5352H26.7437L26.7378 40.9177H26.809C26.7457 41.1236 26.617 41.2878 26.4231 41.4105C26.2292 41.5332 26.0095 41.5945 25.7642 41.5945ZM25.9719 41.0246C26.2054 41.0246 26.3934 40.9435 26.5359 40.7812C26.6784 40.615 26.7496 40.3656 26.7496 40.0332C26.7496 39.7007 26.6784 39.4534 26.5359 39.2911C26.3934 39.1289 26.2054 39.0477 25.9719 39.0477C25.7384 39.0477 25.5504 39.1289 25.408 39.2911C25.2655 39.4534 25.1942 39.7007 25.1942 40.0332C25.1942 40.3656 25.2635 40.615 25.402 40.7812C25.5445 40.9435 25.7345 41.0246 25.9719 41.0246ZM29.6771 42.865C29.4 42.865 29.1487 42.8353 28.9231 42.7759C28.7015 42.7165 28.5036 42.6255 28.3295 42.5028L28.4898 41.9685C28.6045 42.0437 28.7233 42.1051 28.8459 42.1526C28.9686 42.2001 29.0953 42.2357 29.2259 42.2594C29.3565 42.2832 29.4891 42.295 29.6236 42.295C29.9007 42.295 30.1065 42.2258 30.241 42.0873C30.3796 41.9527 30.4488 41.7588 30.4488 41.5055V40.7871H30.5082C30.4449 40.9929 30.3162 41.1572 30.1223 41.2799C29.9323 41.4026 29.7127 41.4639 29.4634 41.4639C29.1942 41.4639 28.9587 41.4046 28.7569 41.2858C28.559 41.1631 28.4047 40.989 28.2938 40.7634C28.183 40.5378 28.1276 40.2726 28.1276 39.9679C28.1276 39.6631 28.183 39.4 28.2938 39.1783C28.4047 38.9527 28.559 38.7806 28.7569 38.6618C28.9587 38.5392 29.1942 38.4778 29.4634 38.4778C29.7166 38.4778 29.9363 38.5392 30.1223 38.6618C30.3123 38.7806 30.4389 38.9428 30.5023 39.1486L30.4488 39.113L30.5082 38.5372H31.2265C31.2107 38.6599 31.1988 38.7845 31.1909 38.9112C31.183 39.0378 31.179 39.1625 31.179 39.2852V41.4164C31.179 41.8874 31.0504 42.2456 30.7932 42.4909C30.5399 42.7403 30.1678 42.865 29.6771 42.865ZM29.6652 40.894C29.9027 40.894 30.0907 40.8148 30.2292 40.6565C30.3717 40.4943 30.4429 40.2647 30.4429 39.9679C30.4429 39.6711 30.3717 39.4435 30.2292 39.2852C30.0907 39.1269 29.9027 39.0477 29.6652 39.0477C29.4238 39.0477 29.2318 39.1269 29.0893 39.2852C28.9469 39.4435 28.8756 39.6711 28.8756 39.9679C28.8756 40.2647 28.9469 40.4943 29.0893 40.6565C29.2318 40.8148 29.4238 40.894 29.6652 40.894ZM33.4294 41.5945C32.9268 41.5945 32.533 41.456 32.248 41.179C31.9631 40.9019 31.8206 40.522 31.8206 40.0391C31.8206 39.7265 31.8819 39.4534 32.0046 39.2199C32.1273 38.9864 32.2975 38.8043 32.5152 38.6737C32.7368 38.5431 32.9941 38.4778 33.2869 38.4778C33.5759 38.4778 33.8173 38.5392 34.0112 38.6618C34.2051 38.7845 34.3516 38.9567 34.4505 39.1783C34.5534 39.4 34.6049 39.6592 34.6049 39.956V40.1519H32.4202V39.7601H34.0765L33.9756 39.8432C33.9756 39.5662 33.9162 39.3544 33.7975 39.208C33.6827 39.0616 33.5145 38.9884 33.2929 38.9884C33.0475 38.9884 32.8575 39.0754 32.723 39.2496C32.5924 39.4237 32.5271 39.6671 32.5271 39.9798V40.0569C32.5271 40.3815 32.6062 40.6249 32.7645 40.7871C32.9268 40.9455 33.1544 41.0246 33.4472 41.0246C33.6174 41.0246 33.7757 41.0028 33.9222 40.9593C34.0726 40.9118 34.215 40.8366 34.3496 40.7337L34.5692 41.2324C34.4268 41.3472 34.2566 41.4362 34.0587 41.4995C33.8608 41.5629 33.6511 41.5945 33.4294 41.5945Z" fill="#2F2F2F"/>
<g opacity="0.2">
<path d="M12.3182 10.1359C13.011 6.71856 16.0321 4.14684 19.6487 4.14684C23.2653 4.14684 26.2863 6.71856 26.9792 10.1359C27.1564 11.0085 27.9225 11.6357 28.8119 11.6357H28.9991C32.0975 11.6357 34.6092 14.1503 34.6092 17.2524C34.6092 20.3547 32.0975 22.8691 28.9991 22.8691H27.1288C26.096 22.8691 25.2589 23.7075 25.2589 24.7415C25.2589 25.7755 26.096 26.6136 27.1288 26.6136H28.9991C34.1628 26.6136 38.3488 22.4224 38.3488 17.2522C38.3488 12.5099 34.8272 8.59205 30.259 7.97582C28.7421 3.56896 24.5662 0.402344 19.6485 0.402344C14.7303 0.402344 10.5545 3.56896 9.0381 7.97582C4.47015 8.59203 0.948242 12.5106 0.948242 17.2522C0.948242 22.4223 5.13423 26.6136 10.298 26.6136H12.1683C13.2011 26.6136 14.0382 25.7755 14.0382 24.7415C14.0382 23.7075 13.2011 22.8691 12.1683 22.8691H10.298C7.19957 22.8691 4.68782 20.3547 4.68782 17.2524C4.68782 14.1503 7.19957 11.6357 10.298 11.6357H10.4852C11.3747 11.6357 12.141 11.0085 12.3179 10.1359H12.3182Z" fill="#2F2F2F"/>
<path d="M14.5855 19.6716C14.0505 20.2072 13.8905 21.0124 14.1801 21.712C14.4694 22.4116 15.1512 22.8676 15.9076 22.8676H17.7779V28.4843C17.7779 29.5184 18.615 30.3568 19.6478 30.3568C20.6807 30.3568 21.5178 29.5184 21.5178 28.4843V22.8676H23.3881C24.1444 22.8676 24.8263 22.4116 25.1156 21.712C25.4052 21.0125 25.2452 20.2073 24.7102 19.6716L20.9703 15.9273C20.2399 15.1961 19.0558 15.1961 18.3255 15.9273L14.5855 19.6716Z" fill="#2F2F2F"/>
</g>
</svg>
