<svg width="40" height="40" viewBox="0 0 40 40" fill="none" xmlns="http://www.w3.org/2000/svg">
    <path d="M33.3529 20.021C33.3529 18.6877 32.0995 17.8877 31.0995 17.2877C30.789 17.1123 30.4906 16.9163 30.2062 16.7009C30.306 16.3399 30.4354 15.9875 30.593 15.6475C31.033 14.5808 31.593 13.2609 30.8064 12.1808C30.0198 11.1009 28.5798 11.2073 27.4198 11.314L27.4196 11.3142C27.051 11.3401 26.6814 11.3401 26.3129 11.3142C26.2196 11.0743 26.0995 10.581 26.0196 10.2609C25.7662 9.12761 25.433 7.71424 24.1397 7.30081C22.8464 6.88742 21.8064 7.8209 20.9397 8.56755C20.6533 8.8526 20.3457 9.11554 20.0196 9.35418C19.6957 9.13699 19.3883 8.89637 19.0995 8.6343C18.2327 7.88767 17.1528 6.95441 15.8995 7.36755C14.6461 7.78095 14.2729 9.16755 14.0196 10.3008C13.9397 10.6209 13.8196 11.1142 13.7263 11.3542C13.3578 11.3803 12.9881 11.3803 12.6196 11.3542C11.4595 11.2475 10.033 11.1276 9.23297 12.2209C8.43297 13.3142 9.0064 14.6209 9.44636 15.6877H9.44614C9.60372 16.0276 9.73319 16.3798 9.83296 16.741C9.54859 16.9562 9.25016 17.1522 8.93965 17.3277C7.93965 17.8877 6.68628 18.6877 6.68628 20.021C6.68628 21.3542 7.93965 22.1542 8.93965 22.7542C9.25014 22.9297 9.54856 23.1257 9.83296 23.3411C9.73319 23.702 9.60372 24.0545 9.44614 24.3945C9.00618 25.4612 8.44614 26.7811 9.23274 27.8612C10.0194 28.9411 11.4593 28.8346 12.6194 28.728L12.6196 28.7277C12.9881 28.7018 13.3578 28.7018 13.7263 28.7277C13.8196 28.9677 13.9397 29.461 14.0196 29.7811C14.2729 30.9144 14.6062 32.3277 15.8995 32.7412C17.1928 33.1546 18.2327 32.2211 19.0995 31.4079V31.4077C19.3883 31.1456 19.6957 30.905 20.0196 30.6878C20.3435 30.905 20.6508 31.1456 20.9397 31.4077C21.6176 32.136 22.527 32.6072 23.5129 32.7412C23.7261 32.7369 23.9372 32.701 24.1397 32.6345C25.473 32.2211 25.7663 30.8079 26.0196 29.6744C26.0995 29.3543 26.2196 28.861 26.3129 28.621C26.6814 28.5951 27.0511 28.5951 27.4196 28.621C28.5796 28.7277 30.0062 28.8476 30.8062 27.7543C31.6062 26.661 31.0328 25.3543 30.5928 24.2876L30.593 24.2878C30.4354 23.9478 30.306 23.5954 30.2062 23.2344C30.4906 23.019 30.789 22.823 31.0995 22.6475C32.0995 22.1542 33.3529 21.3542 33.3529 20.021V20.021ZM25.0597 17.5143L19.7265 24.1812C19.4928 24.4785 19.1439 24.6626 18.7664 24.6879H18.6865C18.3321 24.6899 17.9914 24.5508 17.7399 24.301L15.0731 21.6343V21.6345C14.735 21.2963 14.6028 20.8033 14.7267 20.3412C14.8504 19.8794 15.2113 19.5185 15.6733 19.3946C16.1352 19.2709 16.6283 19.4028 16.9664 19.7412L18.5798 21.3544L22.9798 15.861C23.2883 15.5343 23.7407 15.3849 24.1832 15.4637C24.6258 15.5425 24.9988 15.8389 25.1753 16.2524C25.3521 16.6655 25.3086 17.1401 25.0597 17.5144L25.0597 17.5143Z"
          fill="#61BE7A"/>
</svg>
