<svg width="23" height="16" viewBox="0 0 23 16" fill="none" xmlns="http://www.w3.org/2000/svg">
<path d="M11.229 2.05859C15.019 2.05859 18.399 4.18859 20.049 7.55859C18.399 10.9286 15.029 13.0586 11.229 13.0586C7.42897 13.0586 4.05897 10.9286 2.40897 7.55859C4.05897 4.18859 7.43897 2.05859 11.229 2.05859ZM11.229 0.0585938C6.22897 0.0585938 1.95897 3.16859 0.228973 7.55859C1.95897 11.9486 6.22897 15.0586 11.229 15.0586C16.229 15.0586 20.499 11.9486 22.229 7.55859C20.499 3.16859 16.229 0.0585938 11.229 0.0585938ZM11.229 5.05859C12.609 5.05859 13.729 6.17859 13.729 7.55859C13.729 8.93859 12.609 10.0586 11.229 10.0586C9.84897 10.0586 8.72897 8.93859 8.72897 7.55859C8.72897 6.17859 9.84897 5.05859 11.229 5.05859ZM11.229 3.05859C8.74897 3.05859 6.72897 5.07859 6.72897 7.55859C6.72897 10.0386 8.74897 12.0586 11.229 12.0586C13.709 12.0586 15.729 10.0386 15.729 7.55859C15.729 5.07859 13.709 3.05859 11.229 3.05859Z" fill="white"/>
</svg>
